<svg xmlns="http://www.w3.org/2000/svg" xmlns:xlink="http://www.w3.org/1999/xlink" id="Storybooks_Mexico_Logo" viewBox="0 0 667 511" version="1"><defs id="defs44"><filter id="filter1795" x="0" width="1" y="0" height="1" color-interpolation-filters="sRGB"><feGaussianBlur stdDeviation="28" id="feGaussianBlur1797"/></filter><path transform="rotate(30)" stroke-miterlimit="10" d="M-1 55h2v-93c2-2 2-5 2-8 0-2 0-10-3-19-3 9-3 17-3 19 0 3 0 6 2 8z" id="spearshape"/><filter id="filter1795-8" x="0" width="1" y="0" height="1" color-interpolation-filters="sRGB"><feGaussianBlur stdDeviation="28" id="feGaussianBlur1797-3"/></filter><clipPath id="band"><circle r="735" id="circle53"/></clipPath><clipPath id="gcut"><path d="M-31 0v-70h63V0zM0-47v12h32v-12z" id="path11"/></clipPath><radialGradient gradientTransform="matrix(.0989 .0037 -.0045 .1943 442 123)" r="26" cy="740" cx="381" gradientUnits="userSpaceOnUse" xlink:href="#lg" id="rg3"/><radialGradient gradientTransform="matrix(-.17642 -.07067 .06515 -.16392 431 378)" r="26" cy="550" cx="652" gradientUnits="userSpaceOnUse" xlink:href="#lg" id="rg2"/><radialGradient gradientTransform="matrix(.18574 .04718 -.04532 .18635 234 199)" r="26" cy="104" cx="842" gradientUnits="userSpaceOnUse" xlink:href="#lg" id="rg1"/><linearGradient id="lg"><stop id="stop3038" offset="0" stop-color="#fff"/><stop id="stop3040" offset="1" stop-color="#f15770"/></linearGradient></defs><style id="style3">.st0{fill:#337fbe}.st1{fill:#3bb54a}</style><g id="g3036" transform="translate(-43 -52)"><g id="g3247"><g id="Globe"><circle class="st0" cx="376" cy="305" r="222" id="circle8" fill="#337fbe"/><g id="g10"><path class="st1" d="M176 212c3 0 5 4 8 6l9 3 3 2c1 3-3 5-2 7l2 3v2l3 3v2l1 2 8 4 2 1c6 5 0 16-1 21-2 12 3 18 9 26l4 6c6 8 15 15 22 22l2 3 1 4 7 6 18 8c7 4 13 2 19 5 10 3 21 7 29 14 3 3 3 8 3 12l-1 3-1 2-3 2-1 1c-1 1-2 3-1 4l-2 3-1 7 1 5 2 2 1 2c0 3 2 6 4 7l5 2 2 2c3 2 6 3 8 6 3 6-6 18-6 25v8l-5 15c-2 4-5 10-5 15l7 7 1 3-1 2-3 16 1 2 1 2c3 3 8 5 13 6l1-11a26 26 0 0 1 6-14h1c2 0 3-1 4-3l2-5c4-9 12-10 17-17l6-8 8-10c2-3 3-7 6-9l4-3c7-3 19-15 15-23l-2-3 2-4c2-4 18-21 8-26l-5-1c-5-2-8-7-12-9-6-2-13 0-17-6l-2-4-4-5-6-6-2-1c-3-2-9 1-14 0l-3 2c-3 0-6 0-7-2l-2-4c-2-3-8-5-9-8-1-1-3 0-4 1l-1 3-6 8c-3-1-5-3-6-5l-1-3-2-2-5-2c-2-1-5-3-5-6v-5l1-3v-2h-3l-3 3-4 1-3 2c-3 1-8-1-11-2-2 0-4-1-5-3-2-4-2-13 1-16 4-4 3-8 11-8l10 2h10l2 4 2 4 1 2v3c0 4 0 7 2 9l2-2 2-1v-2l-2-13v-3l1-2 5-11c1-3 2-7 4-8 0-2 1-3 3-3l4-1 3-2a68 68 0 0 1 14-9l5-2c1-2 0-4 2-5l2-2-1-1-5-2h-3c-2 0-4-2-5-4l-1-1 1-1 4-7 1-1 4-1 4 2h7l3 2h3l2-4c-1-3 0-8 3-11l1-1v-2c0-2-1-4-3-5s-5 1-8 1l-10-2-1-1-1-1c-1-2-3-13-6-14l-8-1c-1-1-2 0-2 1v1l-2 2-3-2-9-14-1-1h-2c-2 0-5 0-5 2l-2 2c0 6 4 14 4 20v3l-1 1c-3 2-5 12-8 13h-2l-4-3-3-4c-1-2-4-3-6-4-3-2-12-7-13-11-2-4 2-6 3-10s1-7 6-8c7-3 15-7 22-8 3 0 5 0 6-2 1-3 0-5-2-7l-8-10c-1-1-3-10-6-7l-1 1c-2 3-5 4-8 3-2 0-2-2-2-3v-12c0-2 0-4-2-5l-2 1c-2 1-5 2-6 4l-3 2h-9l-1-1-8-14-2-1c-2 0-1 5-3 6-3 1-7 4-10 2l-5-3c-4-3-6-1-8 2l-1 1 1 2 7 8c3 3-4 6 3 7l3 4 2 4 1 1c3 5-13 3-14 2-8-4-19-11-27-11-15 15-32 47-33 52" id="path12" fill="#3bb54a"/><path class="st1" d="M332 323h-5c0 2 2 3 3 4l2 3 5 1 6-1h3l3-1 2-2-1-1-5-1h-2l-4-4h-5l-3 2" id="path14" fill="#3bb54a"/><path class="st1" d="M591 354c0-3 1-8-2-11l-2-3c-6-9-1-20-15-25-7-2-14-2-21-1l-6-1c-6-3-4-12-8-18s-12-5-20-4l-26 3-7 2c-5 2-8 7-10 12-8 19-17 41-8 59 3 5 8 10 13 8l8-7c5-4 12-3 17 1l16 10c4 2 9 3 11 7l1 7c0 9 0 19-4 27-2 4-5 9-3 13l4 4c7 5 7 15 6 24 0-5 15-17 18-21a219 219 0 0 0 39-80" id="path16" fill="#3bb54a"/><path class="st1" d="M596 335c-5-6-5-14-9-19-1-2-3-3-3-5l1-5c1-5 2-11-2-15-4-5-13-5-17-10l-2-2c-2-1-4 0-5 1-4 2-9 2-13 1v-7l-7-2c-3 1-5 3-8 3l-4-1-9 1-6 3c-2 1-4 3-4 5-2 0-5 1-6 3l-6 1c-4 1-10 2-12-1l-3-5-2-9c-1-3-2-7 1-8l4-1c3 0 5-2 6-5h2c1-5-4-11-1-15l6-3c1-1 3-3 5-3h5l4-3c3-1 5 0 7 2l6 5h7l2-1 1-2c0-4 0-8-3-10l-3-3-3-3-2-4c1-2 3-2 4-2h5l1-3h9l7-2c3 1 4 4 5 7l2 7 3 2c2 0 2-3 2-5 1 1 3-1 4-3 2-6 2-13-1-19-3-5-8-9-8-15-4 4-6 8-8 13 0 3-1 6-3 7l-4 2-19 4c-2 0-5 0-7-2s-1-7 1-9l6-8 2-4c2-2 5-2 8-3 3-2 4-6 4-9 1-3 1-7 3-10 1-2 3-4 5-3l5 2c35 43 57 101 47 170" id="path18" fill="#3bb54a"/><path class="st1" d="M493 212l-3 4 1 5-1 4-6 9c-2 1-4 3-4 5v1l2 1 5-1 7-4 3-1c5-1 8-7 6-11l-4-8c0-2 0-4-2-5l-2-2-2 1" id="path20" fill="#3bb54a"/><path class="st1" d="M458 177c-2 0-4 3-6 5s-4 4-7 3l11 14 2 2h10c4-2 5-6 7-9l5-3 2-5-1-8c-2-2-7-2-10-2l-6 1c-3 0-6 1-8 3" id="path22" fill="#3bb54a"/><path class="st1" d="M378 140c3 15 7 28 13 41l2 7c4 11 15 19 26 19l2-18 1-3 5-1c3-1 3-7 6-8h4c4 0 10-4 14-6l2-1 1-2a1388 1388 0 0 0 6-15c0-2-3-3-3-6-1-4 2-9 2-13 0-3 0-10 5-9l4-13c1-2 1-5-1-6h-4c-4-1-6-6-10-5-4 0-5 3-8 4s-6-1-7-3c-1-3 1-8 3-10l-28-6-3 9h-9c-2 3-5 6-9 8-3 1-6 2-8 1-3-2-5-6-9-6l-4-13c-4 0-9-1-13 1l-3 2c-4 2-9 0-13-1l-2 17c0 2 0 5-2 6-3 2-7-1-7-4-3-3-5-8-5-13-6-3-13-2-18 3 6 3 10 9 11 16-4 2-8 0-12-2-4-3-9-5-14-6-4-1-8-1-10 2-1 2 0 4 1 6-3 4-9 5-13 2l-4-2-6 3-11 7c-1 2 6 4 8 6l7-10c5 0 7 5 9 9 1 4 2 9 5 12h5c2-1 2-14 2-15 0 0 8-6 9-5l1 1c4 4 4 11-1 15 1 1 4 2 6 1l10-2c4-1 6-9 10-5 2 4 6 10 3 13l-3 3c-4 2-5 7-4 11 2 3 6 6 10 6h4l3 2c5 4 9 11 7 16 3 3 5 7 9 9 3 3 9 3 11-2-4-2-7-6-8-10l11-2 3-9-7-7h-7c-4-1-6-4-10-6-3-1-8 1-9-1l-1-4 2-10c0-3 0-6 2-8 4-9 20-18 30-16 1 4 1 8-2 10l-4 1-6 5c-2 2-3 7 0 8-2 0-3 3-1 5l6 1 5-4 8-2c2 1 5 3 4 6" id="path24" fill="#3bb54a"/></g></g><g id="Book"><path class="st0" d="M695 483l-5 16a383 383 0 0 0-314 40l-16-11a385 385 0 0 0-298-29l-5-16-7 20 4 17s158-47 276 8c5 2 1 10 12 23 8 8 20 12 34 12 10 0 20-1 29-7 7-5 11-12 14-20 0-2 0-8 3-8 144-55 274-7 274-7l6-18-7-20z" id="path38" fill="#337fbe"/><path id="Middle_Book" d="M709 435c-186-11-273 47-333 84-49-32-112-82-280-84-17-1-34 0-53 2l19 62s155-53 290 30l-2 3c-2 5 1 11 6 14 8 5 18 5 27 4 12-1 23-7 21-17l-3-4c135-82 289-30 289-30l19-62v-2z" fill="#d2d3d4"/><path id="Top_Book" d="M665 410c-187-10-289 98-289 98S276 400 89 410l-46 27s38-2 56-2c165 3 230 54 277 84 42-25 118-82 281-85l52 2-44-26z" fill="#e6e6e6"/></g></g></g><g id="g4409" transform="matrix(.4928 0 0 .4928 126 116)"><path id="rect3045" fill="#ce1126" d="M0 0h840v480H0z"/><path id="rect3047" fill="#fff" d="M0 0h560v480H0z"/><path id="rect3049" fill="#006847" d="M0 0h280v480H0z"/><g transform="translate(0 1)" id="coa"><g id="branches"><g id="g3053" fill="#fcca3e" stroke="#aa8c30" stroke-width="0"><path id="path3055-4" d="M467 304v5l2-1-1-5z"/><circle id="circle3057" r="2" cy="302" cx="467"/><path id="path3059" d="M474 313l-4-4-2 1 6 4z"/><path id="path3061" d="M474 315v-3l3 1-1 2h-2z"/><path id="path3063" d="M507 251l4 5 1-3-4-2z"/><circle id="circle3065" r="2" cy="250" cx="506"/><path id="path3067" d="M519 254l-7 2v-2l6-1z"/><circle id="circle3069" r="2" cy="253" cx="520"/><path id="path3071" d="M496 287l-4-6 1-1 4 6z"/><circle id="circle3073" r="2" cy="279" cx="492"/><path id="path3075" d="M496 287l6 1v-1l-5-1z"/><circle id="circle3077" r="2" cy="288" cx="503"/><path id="path3079" d="M374 302l-2 1-1-1 1-2 2 2z"/><path id="path3081" d="M374 305l1 6h-2v-6z"/><path id="path3083" d="M375 302c1 1-1 3-2 3-1 1-3 0-3-1 0-2 2-1 3-1 0 0 1-2 2-1z"/><ellipse id="ellipse3085" ry="1" rx="2" cy="312" cx="364"/><path id="path3087" d="M367 312h6l-1-1h-5z"/><path id="path3089" d="M368 311c0 2 0 4-2 4l-1-2c-1-2-2-3 0-4 1-1 2 1 3 2z"/><ellipse id="ellipse3091" ry="2" rx="1" cy="277" cx="347"/><path id="path3093" d="M347 281v6l-1-1v-5z"/><path id="path3095" d="M349 279c1 2-1 2-3 2l-2-2 3-1c0 1 2-1 2 1z"/><ellipse id="ellipse3097" ry="1" rx="2" cy="287" cx="336"/><path id="path3099" d="M340 287l5-1 2 2-7-1z"/><path id="path3101" d="M338 284c2 0 2 1 2 3 0 1-1 3-2 2l-1-1v-1-2l1-1z"/><path id="path3103" d="M334 247l-2 1 1-2 1-1v2z"/><path id="path3105" d="M329 256l3-6h-1l-3 4z"/><path id="path3107" d="M331 250l-1-3h1l2 1h1v2h-3z"/><path id="path3109" d="M320 249l1 2h-2c-1 0-2-1-1-2h2z"/><path id="path3111" d="M323 252l5 3v2l-6-4z"/><path id="path3113" d="M323 253h-3v-1l1-1 1-2 1 1v3z"/></g><g id="g3115" fill="#aa8c30"><path id="path3117" d="M468 304l-1 1v1-2l1-1v1z"/><path id="path3119" d="M468 303h-1l-2-1v-1c1-1 0 0 0 0v2l1 1h2v-1z"/><path id="path3121" d="M474 312l-1 1-5-3 5 3 1-1z"/><path id="path3123" d="M477 314l-1 1h-2l-1-1c0-1 0 0 0 0l1 1 1 1h1v-1h1v-1z"/><path id="path3125" d="M509 251v2l-1-1v-1h1z"/><path id="path3127" d="M508 250l-2 2c-1-1-2-2-1-3v2l1 1h1l1-1v-1z"/><path id="path3129" d="M521 252l-1 2-2-2v2h1v1h1l1-1 1-1-1-1z"/><path id="path3131" d="M517 253l-1 1-1 1 3-1v-1h-1z"/><path id="path3133" d="M494 283v1l-2-3h1l1 2z"/><path id="path3135" d="M493 279l-2 1-1-2v2l1 1h1l1-1v-1z"/><path id="path3137" d="M501 287h-3l3 1v-1z"/><path id="path3139" d="M505 288l-2 2c-2-1-2-2-1-3l-1 1v1l1 1h2l1-1v-1z"/><path id="path3141" d="M375 302c0 1 0 2-2 3-1 1-2 0-2-1l-1-1v2h4l1-1v-2z"/><path id="path3143" d="M374 306h-1v1-2l1 1z"/><path id="path3145" d="M369 311v1h1-2v-1h1z"/><path id="path3147" d="M368 313l-2 2-1-2v-1 2l1 1h2v-2z"/><path id="path3149" d="M362 312l1 2 2-1v1h-3v-2z"/><path id="path3151" d="M349 279v1l-2 1-2-1-1-1v1h1l1 1h3v-2z"/><path id="path3153" d="M347 282h-1v1-2h1v1z"/><path id="path3155" d="M341 287l5 1h-6v-1h1z"/><path id="path3157" d="M340 287l-2 2-1-1v1h3v-2z"/><path id="path3159" d="M337 287h-1-2 3z"/><path id="path3161" d="M335 249l-1 1h-2l-2-2 1 1v1l2 1 1-1h1v-1z"/><path id="path3163" d="M331 251v2l1-3h-1v1z"/><path id="path3165" d="M324 253s0-1 0 0l3 4-4-4v-1l1 1z"/><path id="path3167" d="M322 253h-1-1v-1l-1 1h1v1h1l1-1z"/><path id="path3169" d="M320 251s1 0 0 0l-2-1 1 1 1 1v-1z"/></g><g id="g3171" fill="#9ca168"><path id="path3173" d="M525 239c-1 5-6 7-8 9-3 2-4 5-4 5l-1 2v11l3-2 3-1h1l-4 6c-1 3-3 9-7 11l-8 2-1 2-2 2-1 2-1 1h-1v2l-1 4 2-1h1l-1 2s1 6-4 9-18 2-18 2l-2 1-3 2-2 2v1l-2 2-4 3h3l4 2-4 1c-2 0-11 5-15 5-5 0-11-6-11-6l-2-2-5-1h-6v-2h5l6 2 5-1 8-6 7-3 3 1h1l2 1-2 1-2 1 1 1 5-1 2 1 1-2c1 0 3-3 5-3l1-2 2-4 1-2 5-5 3-4 2-5v-1l1 5-1 3 6-3 3-1 3-2 1-3v-13l3-7 5-4v3l3-4h1l1-3 1-4v-4l-1-3-2-5v-8l-2-2s2 0 3 3l3 6 4-13 2 4 1 4 2-3v1c1 1 3 3 3 8zm-89 85s0-2-5-4l-7-2v1l7 3 3 3 2-1z"/><path id="path3175" d="M466 312l6-5 4-1 9-3c6-4 7-7 8-8l3-1-4 5-8 6c-3 2-10 2-10 2l-5 3-3 3v-1zm16-17l-7 9 7-6 8-5 2-3 2-2s-2-2-12 7zm-11 11l3-3 1-3 8-8c3-4 2-8 2-8l-1 4-10 9v5l-3 4zm-4 14s-2-2-6-2c-6 1-11 5-15 5-5 0-6-2-10-4-3-3-12-2-12-2l9 1c4 1 7 6 13 6 7-1 12-5 15-5l6 1zm-31-3s5 1 9-2c3-3 8-7 10-7l6 1-6-2-8 2-6 6-5 2zm-1 6l-2 1-4-3-5-2v1l5 2 4 2 2 1c1 0 2 0 1-1l-1-1zm3-4l6 1c7 0 11-5 15-7 5-2 7 0 7 0l-5-2c-7 0-15 5-18 6l-5 2zm74-53l-8 13-4 3-4 6-1 1c-1 0-1 0 0 0l2-2 3-4 7-5 6-12 6-3s-3-1-7 3zm-12 15l2-3 3-5 3-9 3-7-3 3c-2 3-5 7-6 11l-2 10zm-2 3l1-4v-12l7-9s-2 0-5 3c-4 3-5 6-5 9l2 8v5zm14-27l2-6c0-1 0-2 3-5 2-2 4-4 4-6l1-10-1 2-2 8-4 9v-8c0-4 1-5 2-7v-9l-3 4-1 10v13l-1 2-1 4 1-1zm-5-28s2 2 2 5c-1 2-2 6-1 8 1 3 3 3 3 5l1 4v-7l-2-2v-9l-3-4z" fill="#717732"/><path id="path3177" d="M403 324s0-2 4-3l9-4v2l-4 1-2 2-4 2h-3z"/><path id="path3179" d="M412 314l-8 2h-2l-2-2-1-1v4l-7-6v4l-1 1-7-6v5h-1l-5-3h-1l1 3-6 1-1 1-1 1s-1 0 0 0h3l1 1c1 0 4-2 6-1s-3 2-3 4c1 2 4 1 5 0 1 0 4-4 5-2 2 2-3 3-2 5s3 1 5 0c1 0 4-5 5-4 1 2-3 3-2 5 1 1 3 0 5-1l3-5h3l2-2 4-2 2 1h4v-2l-4-1zm-36 0l1-1-1-1-3-2-3-3-3-1-1-4v-1h-2l-2-8-1-1h-1l-1 5-2-3-1-7-1 2-2 1-3-6v1l-1 3a33 33 0 0 1-7-7l-2-3 2-3v-3l-3 1v-7l-1-3-3 5-1-2v-5h-1l-2 3-2-4v-5c-1-3-2-5-1-7l1-3c0-1-2 1-1-1 0-1 5-4 4-5-1-2-6 2-5-1 1-2 6-2 6-6 0-2-4 1-5 0 0-1 3-3 3-5v-2c-1-1-4 3-4 3l-2-1-1 4-1 3-4-2 1 4 1 4-3-1 1 4 3 2 1 2 2 1 1 1 1 2v5l1 2-1 1v2h-2l2 3-5 1 3 3c2 1 7 2 6 3s-6-3-6 0c0 2 2 3 4 4l6 1c0 1-4 0-5 2l4 2h3l6 6 6 4-3 1c-1 0 8 3 5 4-2 1-5-2-5 0-1 2 1 4 2 5 2 0 9 0 8 2-2 1-7-2-7 0s3 6 5 6c2-1 4-4 5-2v3l6-2 7 4 4 3z"/><path id="path3181" d="M405 323l1 1 5-3c2-2 5-2 5-2l-5 2-4 3-3 1-1-1 2-1zm11-6h-2l-3-1c-2 0-4 0-5 2l-2 2 2-2 5-1c1-1 2 0 3 1h2v-1zm-66-27v-1l-3-1-7-5 4 3 5 4h1zm46 33l2-3 3-2-1-2v-2l1 2 1 1h2v-1h-2l-3-4-1 3c-1 0-2-6-6-6l-3 1c0 1 3 4 2 5-1 0-5-6-7-6-3 0-3 1-3 2 0 0 3 1 2 3 0 1-3-3-5-3l-3 1v2l-3 1-2 3s1-2 3-2h7l-1-2-1-2 2 2 2 2h3l-1 2-3 2 3-2 2-1h2l-1-2-2-4 2 3 2 3h2l-1 3-1 3 2-3 2-2h2l-1-2-1-4 2 4 1 2h3l-1 2-2 3zm-28-16h2s-2-1-2-3l-1-5-3 2-1-8c-1-2-3-4-4-3 0 1 0 6-1 5-2-2 0-6-1-7 0-2-1-4-2-3l-1 4c-2 0-1-3-2-3h-1l-1-2v2l1 3 1 1-1 1h-3l3 1h2l2 3v-3-4l1 3-1 4 1 2h-8l4 1h5l3 3 1-4v-4 9l-3 1-5 1h5l3-1 1 1 2 1-1 1-2 1 3-1 1-1 1 1v-2l-1-2 1 2v2l2 1zm-41-47l1-5-2-7h-1l1-2-1 1-2-1-1-1 2 1h1l-1-2-2-1-4-3 4 2 2 1 2-1 2-2-2 1-2 1v-3l-2-2-2-4 2 3 2 1 2-1 4-2-4 1-2 1v-2l1-2-1-1 1-3v1l1 2 4-5v-1c-2 0-2 2-3 2l-2-2-2 4v4c-1 0-2-3-3-2-2 0-2 2-2 3l2 5c-1 1-3-3-5-1-1 3 5 6 5 6l2 2 3 3 2 7v4zm16 23s-2-2-1-5c0-3 2-7 1-8 0-1-2 3-3 2l1-7c-1-2-1-4-3-4-2 1-2 6-3 5v-5l-2-1-2 3s-1-4-3-3l3 6 1-2 1-2v5h-3l-3-1 3 1 3 1a76 76 0 0 0 3 4l1-3 2-4-1 5-1 4-4-1-4-1 4 2 4 1 2 2 1-2 2-2-1 3-1 2h-3a627 627 0 0 0 3 1l1 2 2 2z" fill="#717732"/></g><g id="ribbon"><path id="path3184" d="M413 332l-2-2h-2l1-3 7-7 1-7h5v10h1l8 5v2l-1 1h-4l-6-3-2-3-4 5-2 2z" fill="#fff"/><path id="path3186" d="M418 313v9l-6 4c-3 2-3 4-3 4h-2l-2 2s1-4 5-7l5-4v-7l1-1h2z" fill="#016848"/><path id="path3188" d="M428 334l1-2 1-1-2-1-4-1-3-3-2 2 2 2 5 2 2 2z" fill="#016848"/><path id="path3190" d="M422 313h2l1 1-1 7-1 4-6 5-3 3-1-1-1-1 5-5c2-1 4-3 5-6v-7z" fill="#cd202a"/><path id="path3192" d="M436 330h-4l-3-2-4-2-3-3 2-3 3 4 6 3 3 3z" fill="#cd202a"/></g></g><g id="water"><path id="path3195" d="M453 299s-5-1-5-3c1-2 11-4 11-4v-3l-4 1-11 2-5-1a2428 2428 0 0 0-40-2c-5-1-8-8-8-8h-3v4c-2 1-18-7-18-7l-1 3s10 5 9 7c0 2-3 2-3 2l1 2c1 0 16 1 17 6l-4 3 1 1v1l11 1 7 5c2 2 22 2 25 1 4-1 6-5 12-7l7-2z" fill="#30c2dc" stroke="#0872a7"/><circle id="circle3197" r="3" cy="292" cx="373" fill="#fff" stroke="#0872a7"/><circle id="circle3199" r="3" cy="279" cx="389" fill="#fff" stroke="#0872a7"/><circle id="circle3201" r="3" cy="300" cx="455" fill="#fff" stroke="#0872a7"/><path id="path3203" d="M361 275c-1 2 3 6 5 7 3 0 4-1 4-2v-3c-2-2-8-4-9-2z" fill="#f8c83c"/><path id="path3205" d="M369 278l-4-2h-2l4 2-1 2h2l1-2z" fill="#fff"/><path id="path3207" d="M391 302c0 2-1 3-3 4-2 0-6 0-6-2-1-1 1-3 3-4s5 0 6 2z" fill="#f8c83c"/><path id="path3209" d="M387 303l1 1 1-2-2-1-4 3h2l2-1z" fill="#fff"/><path id="path3211" d="M458 293c2 2 5 0 6-1s3-2 2-4l-4-1-4 2v4z" fill="#f8c83c"/><path id="path3213" d="M459 291s0-2 2-2h4l-2 1h-2c-1-1-2 1-2 1z" fill="#fff"/></g><g id="pedestal" fill="#f9aa51" stroke="#953220" stroke-linecap="round" stroke-linejoin="round"><path id="path3216" d="M422 286h-1-8l5 13 5 7 2 1h4l1-2-2-13-6-6z"/><path id="path3218" d="M408 287v-1h5l4 6 4 9 4 6h-5l-3-1-7-11-2-8z"/><path id="path3220" d="M405 286h3s4 3 5 7l2 8c2 4 5 6 5 6h-8l-5-1-2-2h-3l1-4-1-9v-5h3z"/><path id="path3222" d="M435 288l-5-2h-9a431 431 0 0 0 4 14l4 7c1 1 6-2 6-2h4l-1-4v-13h-3z"/><path id="path3224" d="M403 288l2 1 1-2c0-1-1-3-3-3s-3 3-3 4l1 3-1 4c0 3 2 5 2 5l-2 4 3 3c2 0 4-1 4-3l-2-2-2 1"/><path id="path3226" d="M437 289l-2 1-1-2 3-2c1 0 3 2 3 4l-1 3 1 3-2 4s2 1 2 4c0 2-2 3-3 3l-3-2c0-2 1-3 2-3l1 2"/><path id="path3228" d="M406 303h1l1 2 12 1h12l2-3 1-1-1 1v2l1 1-1 1-3 1h-20l-4-1-1-1 1-2-1-1z" fill="#953220" stroke="none"/><path id="path3230" d="M432 287l2 1-2 3-1 3h-8l-1-3 10-4z" fill="#953220" stroke="none"/></g><g id="cactus" fill="#231f20"><path id="path3233" d="M455 286l-2-1-1-3 2 1c-1 1 1 3 1 3z"/><path id="path3235" d="M468 282l1 2 2 1-2-1-2-2h1z"/><path id="path3237" d="M472 283l-2 1-1-2 1 1h2z"/><path id="path3239" d="M479 278h-3l2-1 1 1z"/><path id="path3241" d="M469 264l-2 1v2l1-1 1-2z"/><path id="path3243" d="M462 268l-1 1v2l1-2v-1z"/><path id="path3245" d="M450 276l-4 4s9 5 15 4c7 0 15-5 15-6 1-1 0-6-1-7 0-2-5-5-7-5s-5 2-7 5c-3 3-3 5-7 5h-4z" fill="#8cbebf" stroke="#04534e"/><path id="path3247" d="M449 277s9 2 12-1l7-8 3-1 2 2 2 2 1 4v3l-3 2-5 2-5 2h-4l-9-3-2-1-1-1 2-2z" fill="#0c8489"/><path id="path3249" d="M463 272l1-1 2 1-2 2-1-2z" fill="#04534e"/><path id="path3251" d="M467 274l1-1 2 2-2 1-1-2z" fill="#04534e"/><path id="path3253" d="M465 280l2-1 1 1-1 2-2-2z" fill="#04534e"/><path id="path3255" d="M461 278l1-1 2 2-2 1-1-2z" fill="#04534e"/><path id="path3257" d="M453 279a2 2 0 1 1 4 0 2 2 0 0 1-4 0z" fill="#04534e"/><path id="path3259" d="M467 274l1-1 1 2-1 1-1-2z" fill="#8cbebf"/><path id="path3261" d="M466 280l1-1 1 1-1 1-1-1z" fill="#8cbebf"/><path id="path3263" d="M461 278l2-1v1l-1 2-1-2z" fill="#8cbebf"/><path id="path3265" d="M463 272l1-1 1 1-1 2-1-2z" fill="#8cbebf"/><path id="path3267" d="M453 279l2-2 2 1c0 1-1 3-3 3l-1-2z" fill="#8cbebf"/><path id="path3269" d="M456 277l-2 1v2l1-1 1-2z"/><path id="path3271" d="M463 276l-2 2 1 1v-2l1-1z"/><path id="path3273" d="M464 277l-2 1v1l1-1 1-1z"/><path id="path3275" d="M465 270l-1 1v1l1-1v-1z"/><path id="path3277" d="M470 273l-2 1v1l1-1 1-1z"/><path id="path3279" d="M469 278l-1 2h-1v-1l2-1z"/><path id="path3281" d="M476 275s1 2-2 4c-2 1-8 5-14 5l-12-4h-1l1 1 5 2 5 1 3 1 3-1 5-2 5-2 2-2v-3z" fill="#04534e"/><path id="path3283" d="M361 242l1 2-1 1v-2-1z"/><path id="path3285" d="M371 251l-1 2-1-1h1l1-1z"/><path id="path3287" d="M349 252l1 1h1l-1-1h-1z"/><path id="path3289" d="M353 260l2 1 2-1h-4z"/><path id="path3291" d="M360 266l2-1v-2l-1 1-1 2z"/><path id="path3293" d="M371 261s1-8-5-13c-7-6-11-5-13-3s-4 9 2 15c7 6 16 4 16 4v-3z" fill="#8cbebf" stroke="#04534e"/><path id="path3295" d="M351 253s0-5 2-6 9-2 12 4c4 7 4 10 3 13h-4l-5-2-5-4-3-5z" fill="#0c8489"/><path id="path3297" d="M370 262s-1 2-3 1c-3 0-14-2-16-12v3l1 2 2 3 3 2 3 2 3 1 3 1h2l2-3z" fill="#04534e"/><path id="path3299" d="M364 260l2-1h1l-1 2-2-2z" fill="#04534e"/><path id="path3301" d="M365 254l1-1 1 1-1 1-1-1z" fill="#04534e"/><path id="path3303" d="M360 260l1-1 2 1-2 1-1-1z" fill="#04534e"/><path id="path3305" d="M360 254l1-1 1 1-1 2-1-2z" fill="#04534e"/><path id="path3307" d="M355 255l1-2 2 2-2 1-1-1z" fill="#04534e"/><path id="path3309" d="M356 250l1-1 2 1-2 1-1-1z" fill="#04534e"/><path id="path3311" d="M361 249h1l1 1-1 1-1-2z" fill="#04534e"/><path id="path3313" d="M356 249h2l-1 2-1-2z" fill="#8cbebf"/><path id="path3315" d="M355 255l1-2 1 1-1 2-1-1z" fill="#8cbebf"/><path id="path3317" d="M361 249h2l-1 1-1-1z" fill="#8cbebf"/><path id="path3319" d="M360 254l1 2 1-2-1-1-1 1z" fill="#8cbebf"/><path id="path3321" d="M365 253l1 2 2-2-2-1-1 1z" fill="#8cbebf"/><path id="path3323" d="M360 260l1-1 1 1-2 1v-1z" fill="#8cbebf"/><path id="path3325" d="M364 259l2-1 1 1-2 1-1-1z" fill="#8cbebf"/><path id="path3327" d="M366 251l1 2-1 1v-1-2z"/><path id="path3329" d="M362 247v2l-1-1 1-1z"/><path id="path3331" d="M357 247v3l-1-1 1-2z"/><path id="path3333" d="M355 248l1 1 1 1h-1l-1-2z"/><path id="path3335" d="M359 253l1 1 1 1-1-1-1-1z"/><path id="path3337" d="M354 253l2 1v1l-1-1-1-1z"/><path id="path3339" d="M365 257v0z"/><path id="path3341" d="M364 258l1 1v0l-1-1z"/><path id="path3343" d="M359 259h1l1 1h-1l-1-1z"/><path id="path3345" d="M357 244s-4 1-5 3l-1 6v-3l1-3 1-2 2-1h2z" fill="#04534e"/><path id="path3347" d="M371 260l-1-4-4-8 2 2 2 3v2l1 2v3z" fill="#04534e"/><path id="path3349" d="M375 255l2 1-1 1-1-1v-1z"/><path id="path3351" d="M369 272l1-2h2l-1 1-2 1z"/><path id="path3353" d="M379 276l2-2v-1l-1 1-1 2z"/><path id="path3355" d="M378 275l1-2 1-1v2l-2 1z"/><path id="path3357" d="M396 267s-7-10-17-11c-8 0-11 7-11 10 1 2 4 7 15 7 11 1 12-5 13-5v-1z" fill="#8cbebf" stroke="#04534e"/><path id="path3359" d="M388 260l4 4 1 3c-1 0-7-6-12-7s-9 0-10 3c-1 2-1 5 2 7l12 3 5-1 3-1 1-2 1-2v-1l-3-3-4-3z" fill="#0c8489"/><path id="path3361" d="M380 261l-2 1-1-1 1-1 2 1z" fill="#04534e"/><path id="path3363" d="M374 263h1l1 1-1 1-1-2z" fill="#04534e"/><path id="path3365" d="M380 267l2-1 1 1-2 2-1-2z" fill="#04534e"/><path id="path3367" d="M375 268h1l2 1-2 1-1-2z" fill="#8cbebf"/><path id="path3369" d="M384 271l1-1 1 1-1 1-1-1z" fill="#04534e"/><path id="path3371" d="M388 268l1-1 1 1-1 1-1-1z" fill="#04534e"/><path id="path3373" d="M379 261l-1 1-1-1 1-1 1 1z" fill="#8cbebf"/><path id="path3375" d="M376 263l-1 1-1-1h2z" fill="#8cbebf"/><path id="path3377" d="M377 268v1l-2-1 1-1 1 1z" fill="#8cbebf"/><path id="path3379" d="M383 267l-2 1-1-2 1-1 2 2z" fill="#8cbebf"/><path id="path3381" d="M390 268l-1 1-1-1c0-1 0-2 1-1l1 1z" fill="#8cbebf"/><path id="path3383" d="M386 271l-1 1-1-1 1-1 1 1z" fill="#8cbebf"/><path id="path3385" d="M386 267h2l1 1h-1l-2-1z"/><path id="path3387" d="M382 271h2-2z"/><path id="path3389" d="M379 265l2 1 1 1h-2l-1-2z"/><path id="path3391" d="M379 267h2-2z"/><path id="path3393" d="M374 267l2 1v1l-1-1-1-1z"/><path id="path3395" d="M374 269l1-1h1v1h-2z"/><path id="path3397" d="M373 263h1l1 1h-1l-1-1z"/><path id="path3399" d="M376 259l2 1v1h-1l-1-2z"/><path id="path3401" d="M394 270s-3 2-10 2c-8 0-14-3-16-6l1 1 2 2 5 3 5 1h9l3-2 1-1z" fill="#04534e"/><path id="path3403" d="M395 266l-3-3-8-5 5 2 4 3 2 3z" fill="#04534e"/><path id="path3405" d="M395 260l2 1 1 1-1 1-1-1-1-2z"/><path id="path3407" d="M400 257l3 2v1l-2-1-1-2z"/><path id="path3409" d="M402 257l2 2v1l-1-1-1-2z"/><path id="path3411" d="M411 259l1 1v2l-1-1v-1-1z"/><path id="path3413" d="M413 260l2 2-1 1-1-1v-2z"/><path id="path3415" d="M397 279l2 1 1-2h-1l-1 1h-1z"/><path id="path3417" d="M406 282l2-1 1-2-2 1-1 2z"/><path id="path3419" d="M414 282l1-1 1-2-1 1h-1l-1 2z"/><path id="path3421" d="M416 282l1-2v-1l-1 1v2z"/><path id="path3423" d="M394 270c0-3 4-10 9-10 3 0 7 1 10 3l6 3h5l6-1-5 8-2 1s-1 3-6 5c-4 2-12 1-16 0-3-1-8-4-7-9z" fill="#8cbebf" stroke="#04534e"/><path id="path3425" d="M394 270l1-3 3-4c2-2 3-3 5-3l5 1 5 2c2 0 3 1 3 2l3 1h11l-5 6-2 2s-2 3-6 5l-6 1-10-2-5-2-2-6h-1c0 3 1 5 3 6 1 2 3 3 5 3l10 1h6c5-2 7-6 7-6h-1 1l2-1 5-8-7 1a21 21 0 0 1-5-1l-2-1-4-2a38 38 0 0 0-10-3l-4 2a15 15 0 0 0-6 9h1z" fill="#04534e"/><path id="path3427" d="M425 271l-2 1s-15-9-19-9c-5 1-9 3-9 7 0 5 1 5 2 6l9 3h10l4-2 2-2 2-2 1-2z" fill="#0c8489"/><path id="path3429" d="M402 269l-1 1-2-1 2-1 1 1z" fill="#04534e"/><path id="path3431" d="M404 265l1-1 2 1-2 1-1-1z" fill="#04534e"/><path id="path3433" d="M412 267l2-1 1 1-1 1-2-1z" fill="#04534e"/><path id="path3435" d="M414 273l2-2 1 1-1 2-2-1z" fill="#04534e"/><path id="path3437" d="M410 276l1-1 2 1-1 1-2-1z" fill="#04534e"/><path id="path3439" d="M402 275l1-2a1 1 0 1 1 0 3l-1-1z" fill="#04534e"/><path id="path3441" d="M402 269l-1 1-2-1 2-1 1 1z" fill="#8cbebf"/><path id="path3443" d="M406 265l-1 1-1-1 1-2 1 2z" fill="#8cbebf"/><path id="path3445" d="M415 267l-1 1-2-1 2-1 1 1z" fill="#8cbebf"/><path id="path3447" d="M410 270l-1 2-1-1 1-2 1 1z" fill="#04534e"/><path id="path3449" d="M404 274l-1 2-1-2 1-1 1 1z" fill="#8cbebf"/><path id="path3451" d="M410 270l-1 2-2-2 2-1 1 1z" fill="#8cbebf"/><path id="path3453" d="M417 272l-1 2-2-2 1-1 2 1z" fill="#8cbebf"/><path id="path3455" d="M413 276l-2 1-1-1 1-1 2 1z" fill="#8cbebf"/><path id="path3457" d="M413 271l3 1v1h-1l-2-2z"/><path id="path3459" d="M411 264l2 2 1 1h-1l-2-3z"/><path id="path3461" d="M406 268l2 1 1 2-2-1-1-2z"/><path id="path3463" d="M405 269l3 1 1 1h-1-1l-2-2z"/><path id="path3465" d="M403 263l2 1v1h-1l-1-2z"/><path id="path3467" d="M398 266l3 2v1l-2-1-1-2z"/><path id="path3469" d="M397 269h3-3z"/><path id="path3471" d="M409 276l2-1 1 1h-3z"/><path id="path3473" d="M401 275l1-1h1l-1 1h-1z"/><path id="path3475" d="M423 274l-5 3c-3 2-5 2-9 2a20 20 0 0 1-15-7l1 2 2 3 3 1 5 2h7l4-1 3-1 1-1 2-1 1-2z" fill="#04534e"/><path id="path3477" d="M419 266l-3-1c-3-2-6-4-12-4s-8 4-8 4l3-3 2-2h4l3 1h2l3 1 2 2 3 1 1 1z" fill="#04534e"/><path id="path3479" d="M427 268h-5l-1 1-1-3h5l2 1v1z" fill="#04534e"/><path id="path3481" d="M421 292l1 1h7l2-2 1-4 1-2 4-2 4-2h3l3-1 2-1 1-2 1-2-1-3-2-4-5-2h-3l-4 2-8 2s-3 1-5 4-2 4-2 8v10z" fill="#0c8489" stroke="#04534e"/><path id="path3483" d="M423 290l2-5 4-6h1l1-1s0-2 2-3l3-2h2v1l2-1v-1h4v2l1 2 2-1v-1-1l3 2v-3l-3-4-4-1h-5l-5 3-5 3s0 4-1 3l-2-2-2 5-2 7 2 4z" fill="#8cbebf"/><path id="path3485" d="M428 284h-1l-1 2 1 1h1l1-1 1-1-1-1h-1z" fill="#8cbebf"/><path id="path3487" d="M436 277l-1 1h-1l1 2h2v-2h-1v-1z" fill="#8cbebf"/><path id="path3489" d="M442 279l-1-1-1 2 2 1v-2z" fill="#8cbebf"/><path id="path3491" d="M423 280l2 1 2-1h-2-1-1z" fill="#8cbebf"/><path id="path3493" d="M430 285l-1 2h-1l-1-1h-1 2l2-1z" fill="#04534e"/><path id="path3495" d="M447 274l-1 2h-1l-1-1v-2l1 2 2-1z" fill="#04534e"/><path id="path3497" d="M431 278l-1 2-1-1h1l1-1z" fill="#04534e"/><path id="path3499" d="M434 278l1 1 1 1 1-1v-1 1h-1-1l-1-1z" fill="#04534e"/><path id="path3501" d="M440 272v2h-2 1l1-2z" fill="#04534e"/><path id="path3503" d="M422 293l8-1c0-1-1-5 3-8s8-3 10-3 7-2 8-6c0-3-3-3-5-5-1-3-4-2-4-2-1 0-4 0-6 2l-2 3-5 1v2c-1 1-2-1-2-1l1-3 5-4 7-4 5 1 4 2 2 2 1 4v2c-1 4-5 6-9 7-4 0-8 2-9 3-2 1-3 7-3 8h-9z" fill="#04534e"/><path id="path3505" d="M425 279h-1l1-3v3z"/><path id="path3507" d="M430 278l-1-1 3-2-1 2-1 1z"/><path id="path3509" d="M428 285l-1-1 2-2-1 1v2z"/><path id="path3511" d="M431 283l-1 1-2 1v-1l3-1z"/><path id="path3513" d="M437 275l-1 1v2l1-1v-2z"/><path id="path3515" d="M439 278l-1-1h-2v1h3z"/><path id="path3517" d="M438 272l1-1 1-1-1 1-1 1z"/><path id="path3519" d="M447 272l-2 1v1h1l1-2z"/><path id="path3521" d="M444 278l-1 1-2 1 1-1 1-1h1z"/></g><g id="blooms"><ellipse id="ellipse3524" transform="rotate(9 386 258)" ry="6" rx="4" cy="258" cx="386" fill="url(#rg1)"/><g id="g3526" fill="#fcca3e" stroke="#aa8c30" stroke-width="0"><path id="path3528" d="M388 248l-3 5h2l1-5z"/><path id="path3530" d="M389 245l-2 2 1 1c1 1 2 0 2-1l-1-2z"/><path id="path3532" d="M485 259l-5 6h2l4-5z"/><path id="path3534" d="M488 257l-3 1c-1 1 0 2 1 2h2v-3z"/><path id="path3536" d="M345 229l3 7 1-2-3-5z"/><path id="path3538" d="M344 227v2h2v-2h-2z"/></g><g id="g3540" fill="#aa8c30"><path id="path3542" d="M389 246s1 0 0 0l-2 1 2 1h-2v-2h1v-1h1v1z"/><path id="path3544" d="M388 249l-1 1-1 1 2-3v1z"/><path id="path3546" d="M488 258s1 0 0 0h-3l1 3c1 0 0 0 0 0l-1-1v-3h3v1z"/><path id="path3548" d="M485 261h-1l-2 2 3-3h1l-1 1z"/><path id="path3550" d="M344 226s1 0 0 0v3h2c1-1 0 0 0 0l-1 1-1-1h-1v-2h1v-1z"/><path id="path3552" d="M346 230v1l1 2-2-3 1-1v1z"/></g><ellipse id="ellipse3554" transform="rotate(63 351 242)" ry="4" rx="6" cy="242" cx="351" fill="url(#rg2)"/><g id="g3556" fill="#e92736"><path id="path3558" d="M345 240h2l1-1v-1l-1-2h-2v-1l-2 3h1v1l1 1z"/><path id="path3560" d="M347 236l1 2h1l1-2v-1-1l-1-1-3 1c0 1 0 0 0 0v2z"/><path id="path3562" d="M353 235v-2h-1l1-1h-3v4h3v-1z"/><path id="path3564" d="M382 252l1 1 1 1 1-1 1-2-1-1s1 0 0 0h-2l-1 1v1z"/><path id="path3566" d="M386 251l-1 2 1 1h2v-1l1-1v-1-1h-3 1l-1 1z"/><path id="path3568" d="M390 255l1-1v-1h1l-2-2v1h-1l-1 1v1l2 1z"/><path id="path3570" d="M477 262v2h2l2-1-1-1 1-1-2-1v1h-2v1z"/><path id="path3572" d="M480 263l-1 1 1 1 1 1 1-1h1v-1l-1-2v1h-2z"/><path id="path3574" d="M481 268h2v-1h1l-1-2v1l-1-1h-1v1 2z"/></g><g id="g3576" fill="#f7e204"><path id="path3578" d="M347 237l-1 2h-1v-1l1-1h1z"/><path id="path3580" d="M347 236v1h2l1-2-1-1-2 2z"/><path id="path3582" d="M351 234v1h1l1-1h-1-1z"/><path id="path3584" d="M385 252l-1 1-1-2h2v1z"/><path id="path3586" d="M386 251v1l1 1 1-1v-1h-2z"/><path id="path3588" d="M390 252l-1 1v1h2v-1l-1-1z"/><path id="path3590" d="M480 263h-2v-1h2v1z"/><path id="path3592" d="M481 263l-1 1v1h2v-1l-1-1z"/><path id="path3594" d="M482 266l-1 1h1v-1z"/></g><ellipse id="ellipse3596" transform="rotate(48 477 269)" ry="6" rx="3" cy="269" cx="477" fill="url(#rg3)"/></g><g id="eagle_snake"><g id="snake1" fill="#78732e"><path id="path3600" d="M375 185h-8c-4-1-3-9-3-10l-2-4c0-2 7-7 8-8l2 1 2-2 1 1-3 3-1 3-2 3 1 2 4-1 3-2-3 4-4 1s-2 3 2 3l5-1-2 7z" fill="#a8ac71"/><path id="path3602" d="M355 206s3 1 3 4-3 6-3 11 1 5 8 11c0 0 2 1 2 3s2 11 8 11c7 0 8-4 8-4l-3-4h-4l-3-2-2-7c-2-4-7-5-7-10 0-4 3-4 2-10-1-5-7-7-7-7l-3-1-1 5h2z" fill="#a8ac71"/><path id="path3604" d="M374 170c2-1 1-6 1-6l-2 1 1 2v3z" fill="#f1a720"/><path id="path3606" d="M378 227h-1c-1-1-5-4-4-12 1-10 14-14 15-18s4-6-7-15l-2 3 4 4h1l-1 4-8 6-4 3-3 5c-2 4-1 9-1 9s0 10 11 11z" fill="#a8ac71"/><path id="path3608" d="M371 233l1 3-2 1h-2l-2 2v-1l-1-2 2 1h2v-2l2-2z"/><path id="path3610" d="M365 233l-1-1-2-1 2-1h2l-1 2v1z"/><path id="path3612" d="M368 228l2 1v2l-2-1h-2l1-2h1z"/><path id="path3614" d="M367 243v-1l-1-2h2l2 1v1l-2 1h-1z"/><path id="path3616" d="M374 238l-2-1v-1l-1 2v2h2l1-1v-1z"/><path id="path3618" d="M368 244l2 1 1 1 1-1 1-2-4 1h-1z"/><path id="path3620" d="M374 243l3-2v-3h-2l-1 3v2z"/><path id="path3622" d="M371 246s3 1 7-1l2-1-2-1-1 2-6 1z"/><path id="path3624" d="M368 219l-1-1v-2l1 1 2 1-1 1h-1z"/><path id="path3626" d="M371 224l-1-1-1-2 1 1h2l-1 2z"/><path id="path3628" d="M363 169c0 1-1 3 1 3 0 0 3 0 6-3l1-4 1-1h-3l-6 5z" fill="#c6c7a6"/><ellipse id="ellipse3630" ry="1" rx="1" cy="165" cx="371" fill="#1c242f"/><path id="path3632" d="M367 165l-2 2s2 0 3-2h4v-1h-2l-3 1z" fill="#a8ac71"/><path id="path3634" d="M373 218v-1-2l-1 1-1 2 1 1 1-1z"/><path id="path3636" d="M367 215v-3l1-4v2l2 3h1l-2 2h-2z"/><path id="path3638" d="M373 214v-1l1-2a34 34 0 0 0-3 2l1 1h1"/><path id="path3640" d="M368 206l1-2 2-2 1 3v3h1l-1 1-3-1-1-2z"/><path id="path3642" d="M374 210l1-1 2-1h-4v2h1z"/><path id="path3644" d="M372 201l1-1 2-1 1 5-3-1-1-2z"/><path id="path3646" d="M377 207l3-2-5-1 1 3z"/><path id="path3648" d="M379 201v-5l-2 2-1 1 2 1 1 1z"/><path id="path3650" d="M383 196v-3h-1l-1 1-1 1 1 1h2z"/><path id="path3652" d="M384 201l2-2 2-2h-5v2l1 2z"/><path id="path3654" d="M372 183l-1 2h5l-1-1-2-1-1-1z"/><path id="path3656" d="M380 204l2-1 2-2h-4v3z"/><path id="path3658" d="M389 196v-3-2l-4 2 1 1 1 2h2z"/><path id="path3660" d="M383 192l1-1v-1h4l-1 2-1 1h-2l-1-1z"/><path id="path3662" d="M388 190l-1-3-2-1-1 3v1h4z"/><path id="path3664" d="M357 215l-1 1 3-1 3 2v-1l-3-2-2 1zm0-7h1l2-2h2l-1-1h-2l-2 3zm6 5l-2-2-3 1v1l3-1 2 3v-2zm-6-6l1-2 1-2h-1l-1 1v3zm-1-3l1-2-2 1v3h1v-2zm10-25l2-1-1 4-1 3h1l1-2 2 2h1l1-3 3 2-3-2v-1l3-2 1 1-1-1h-1l-2 2-1-2h-1l-2 2 1-3v-1l-3 1-2 2v1l2-2zm2 2l3-2 1 3-1 3-3-3v-1zm-10 28v1l3-1 3 1v-1l-3-1-3 1zm28-15v-1l3-2-1-1h-2-2l1-3 1-1-1-1-1 1-4-1 3 1h2l-1 2v2h4l-2 2h-1l-1-2v1l1 2-2-1-1 1v3l-2-1v1h-1v4l-3-1h-1v4c-2 0-3-2-3-2l-1 1 1 6h-1c-2 0-3-2-3-2v2s0 3 2 5h1l-4 2v1a59 59 0 0 0 3 2l-2 1v1l2-2 3 1v-1h-2l2-3v-1l-2-1 3-2v-1l-1-1 4-1v-1l-1-3 4 1v-1-3h4l-1-4h5l1-1-3-2zm-14 21l-1 2-1 1v-1l-2-1 3-2 1 1zm2-4l-3 2v-1c-2-1-3-2-3-4l3 1h1l2 2zm2-4l-3 1-1-6 3 2 1 3zm0-4v-3l3 1v3l-3-1zm7-3l-3 1v-5l3 1v3zm0-4v-3h2l1 2 1 1h-4zm-10 25v-1l-1 2h-1l-2-1 2 1v3l1-3 1 1v3h3l-1-1h-1-1v-1l1-1-1-1h-1l1-1zm-15-2l3 1v-1l-2-1-4 1v2l3-2zm18 26h-4l1-2c4-1 4-3 4-3v-1l-3 3 1-4h-1l-3 2 1-3v-1l-3 1 2-4v-1l-3 4v1l-3-2v1l3 1-2 2v1l4 1-3 2 1 1 5-1-2 3 5-1 3-2-1-1s0 2-2 3zm-9-6l1-2h3l-1 3-3-1zm2 4l1-2h1c2 0 3-2 3-2l-1 4h-4zm-3-13l5 1-1-1h-4l3-3h-1l-2 2v1a5 5 0 0 0-4 0l1 1 2-1v4l1-4zm-4-8v-1h-4l-2 3v1s1-2 3-2l3-1zm4 3h-1l-3 1-1 3 1 1 1-3 3-2zm-5 0l3-1-1-1-3 1-3 3 2 1 2-3zm7-59l2-1h1l-1 3-1 2-2 4 1 2 1-1h-1v-1l1-3 2-3v-3l-1-1-3 2-2 1 3-1z" fill="#fff"/><path id="path3666" d="M374 179h-3l1 2z"/><path id="path3668" d="M370 179v-1h-1l-1 1v2l2-2z"/><path id="path3670" d="M370 185l-2-3-2 3h1a41 41 0 0 0 3 0z"/><path id="path3672" d="M380 244c-1 1-3 2-7 2l-4-1-2-3-1-5-2-5-5-4a10 10 0 0 1-4-8l2-6 1-4v-1l-2-2-1-1-1-1-1 1h2l1 1 2 2v1l-1 4a15 15 0 0 0-2 7c0 4 2 6 4 8l5 4 2 6 1 4 2 2 4 1c4 0 7-2 7-2z"/><path id="path3674" d="M377 238h-2l-2-1-2-3-1-4-4-5c-2-2-4-3-4-5l1-5a14 14 0 0 0 1-6c0-2-2-4-4-6l-4-2v1l4 2 4 5v1l-2 5-1 5v1l4 4 5 5 1 4 2 3a4 4 0 0 0 4 1z"/><path id="path3676" d="M389 228s2 0 2 2l-1 4-3-2 2-2v-2z" fill="#a8ac71"/><path id="path3678" d="M350 205h-3v-2s-2 0-2-2l2-1 2-2 2 2-1 5z" fill="#f8c83c" stroke="#977c2e" stroke-width="0"/><path id="path3680" d="M352 206h-2l-1-2-1-2 2-1 2-2 1 1-1 6z" fill="#f8c83c" stroke="#977c2e" stroke-width="0"/><path id="path3682" d="M355 206l-2 1-1-2-1-2 2-1c1-1 1-3 2-2l2 2s-2 0-3 2l1 2z" fill="#f8c83c" stroke="#977c2e" stroke-width="0"/><path id="path3684" d="M386 227l-3-3-3-4-3-1-2-3v-6l1-2s-6 2-3 14c2 5 5 6 5 6l6-1h2z" fill="#af7029"/><path id="path3686" d="M383 188l1 1v1c-2 5-6 7-10 9-2 2-4 3-5 6a16 16 0 0 0-2 9c0 6 2 10 5 12s6 2 7 2h2a47 47 0 0 1 7 0h1v1l-1 1-1 1v1l2-1 1-2-1-1-1-1h-9l1 1v-1h-1c-1 0-4 0-7-2-2-1-5-5-5-11v-1l2-8 8-7c3-2 6-4 7-8v-1l-1-1z" fill="#816c2a"/><path id="path3688" d="M391 229l-2 3 2 1h-1l-2-1v-1l1-1 1-2 1 1z" fill="#fff"/><path id="path3690" d="M396 231l-3 1-2-1-1-3-2-1h-3l-6-7h6l3-1 2 1h2l1 1 1 1 2 2v7z" fill="#fcca3d"/><path id="path3692" d="M397 231h-6v1l-1 2v4h5l1-5 1-2z" fill="#af7029"/><path id="path3694" d="M396 229v2-2z" fill="#fcca3d"/><path id="path3696" d="M392 189v-2l-1-2-1-2-2-2-1-1h-4l-2 2s5 4 7 8l4 2v-3z" fill="#fcca3d"/><path id="path3698" d="M389 193l-1 5 2-3 2-3-4-2 1 3z" fill="#af7029"/><path id="path3700" d="M394 236l-2-2-1-1h-1 1l1 1a22 22 0 0 1 2 2z" fill="#816c2a"/><path id="path3702" d="M396 233l-1 2-3 2 3 1 3-2-2-3z" fill="#6f5b24"/><path id="path3704" d="M397 236l-1 1h-1l1-3 1 1z" fill="#404118"/><path id="path3706" d="M375 185h-8c-4-1-3-9-3-10l-2-4c0-2 7-7 8-8l2 1 2-2 1 1-3 3-1 3-2 3 1 2 4-1 3-2-3 4-4 1s-2 3 2 3l5-1-2 7z" fill="none" stroke="#78732e" stroke-width="0"/></g><g id="eagle"><g id="wings" fill="#d2a567"><path id="path3710" d="M418 148s-9-2-9 5c0 3 1 4 3 4 2 1 6 1 9 4s3 5 3 7v3l2 10 2 8 6-4 4-11-5-20-15-6z" fill="#ab6d29" stroke="#4d2a15"/><path id="path3712" d="M427 186s4-1 4-4l-3-4 3 2 1 1 2-4-3-4h-3 3l2 1-1-5c0-1-1-2-3-2h-3l4-1 2 1-1-4-3-2-2-1h-1 4l-1-1-5-2h-5l2-2h1l-3-1h-3l-4 1 1-2h1c2-1 0-2 0-2l1-2 5 1 11 6 5 5 3 8-1 14-7 6h-3v-3z" fill="#4d2a15"/><path id="path3714" d="M418 151v-2-1s-4-1-6 1c-3 2-1 6-1 6l2-2h4l-1-2h-3l3-1 2 1z"/><path id="path3716" d="M429 187l-3 1 2 10 9 16 5-1 2-3 1 1 4 4 4 1 6 9v-3l-2-4-1-3-1-1h3l1 1 3 2 1 1 1 2v1l1 2 1 3 2 3v-1l-1-3-2-8-2-3 3 2 2 3 2 2v3l1 2 1 3 1-1v-2l-1-5-1-6 2 1 1 3 1 5 1 5 1 5 2 3 1 2v-3l-2-21v-1l1 1 2 3v3l1 2v5l1 4 2 5 1 3 1-3-1-23 2 1 1 2 1 5v14l1 3 4-37h2l1-1-2-1-4-7-3-6-5-9-9-11-7-6-2-1v-2l2-2h-2l-3 1-2-1-6-4-6-3-4-2-9-2-8-1h-4l-4 1-2 2v3c0 2 1 3 3 4l8 4 3 3 1 1v1l2 15-4 8-2 1z" fill="#8f4620"/><path id="path3718" d="M438 210s2 3 4 1-1-8-1-9h1l2 3v4c0 3-3 5-3 5l-2-1-1-3z" fill="#ab6d29"/><path id="path3720" d="M493 244l-2-6-1-4-1-13v-4l-2-3h-1l1-1 1 1-1-6-5-11 1 1 3 2 5 2 3 1 2 3 1 10-1 9c-2 4-2 14-2 16l-1 3z" fill="#4d2a15"/><path id="path3722" d="M493 227l1-3c1-2 1-16-1-18l-5-3 1 5 1 1 1 3 1 8 1 7z" fill="#8f4620"/><path id="path3724" d="M485 236v-12l-1-6-3-8-3-9-3-2v2l-2-1-1-1 1-2v-3l2 2 6 4 2 11 3 7v23l-1-5z" fill="#4d2a15"/><path id="path3726" d="M488 204l2 1 2 2-2-1-2-1v-1z" fill="#4d2a15"/><path id="path3728" d="M477 233l1-5-2-11-4-7-3-6-3-3v-5l5 3 2 1 2 11 3 3 1 5 1 11v9l-3-6z" fill="#4d2a15"/><path id="path3730" d="M472 229l-1-7-2-6c-1-1-4-3-6-7l-5-6v-5l3 2 3 2 1 5 2 3 2 4 2 1 1 5v3l1 5v2l-1-1z" fill="#4d2a15"/><path id="path3732" d="M468 229l-1-2v-2l-2-5-1-3-6-6-5-4-2-1-1-5 3 3 3 1 4 6 1 2 3 3 2 2 1 4 1 4v3z" fill="#4d2a15"/><path id="path3734" d="M461 227s-3-2-3-4v-3l-5-6-5-5 1-2 1 1 6 7 2 3 1 4 1 2 1 2v1z" fill="#4d2a15"/><path id="path3736" d="M482 197s4 5 5 0l-2-6-5-8-7-10-5-2 2 3 8 11c4 7 3 11 3 11l1 1z" fill="#4d2a15"/><path id="path3738" d="M458 166s8 7 14 15c5 7 7 12 6 13-2 1-5-1-6-3l-7-11-8-6-3-6 4-2z" fill="#4d2a15"/><path id="path3740" d="M454 183a103 103 0 0 0 12 12l2 2v-2l1-1-15-15v4z" fill="#4d2a15"/><path id="path3742" d="M453 183l4 6 6 5 1 4s-7-6-7-4l1 4-2-1-3-5-1-3-2-5 3-1z" fill="#4d2a15"/><path id="path3744" d="M432 200s4 3 6 0 0-7 0-7 5 7 7 0l-3-6 1-1 3 4s2-1 2-4-3-6-3-6l3 2s5 0 5-3c0-2-4-5-4-5s3 0 3-2-5-3-5-4 2-3 4-2 4 2 5-1c2-2 0-2 0-2l-2-1-5-2-3-1-4-1 1 3 1 7v4l1 7-2 7-1 1-2 4-2 2-3 4-3 3z" fill="#4d2a15"/><path id="path3746" d="M458 214l-3-4c-2-2-5-2-5-2l5 6h3z" fill="#ab6d29"/><path id="path3748" d="M465 215l-4-6-3-4h-1v4l4 4 4 2z" fill="#ab6d29"/><path id="path3750" d="M471 215l-3-8-4-6 1 5 1 3 3 4 2 2z" fill="#ab6d29"/><path id="path3752" d="M476 212s2-8 0-10l-3-3-1 1 1 6 2 5 1 1z" fill="#ab6d29"/><path id="path3754" d="M481 199l3 3 3 11-1 1-5-8-1-7h1z" fill="#ab6d29"/><path id="path3756" d="M447 208l2-1-3-4 3-1s-2-5-1-6l3 5 1 4c-2 5-5 3-5 3z"/><path id="path3758" d="M453 202l4 1-4-4v-2h3l-3-5h1l3 4 2 7c0 3-7 0-6-1z"/><path id="path3760" d="M471 196l-1-3h2l-3-2-2 1 2 3 2 1z"/><path id="path3762" d="M459 198l6 2-5-6v-1h3v2l2 3v-4l3 2 4 2 1-2c0-1 1 3-1 4l-3-1-1-1-1-1v4h-5l-3-3z"/><path id="path3764" d="M473 194l7 4-2-11c1-1 6 10 3 12h-2l-4-2-2-3z"/><path id="path3766" d="M491 211h1l1 1h-2v-1z"/><path id="path3768" d="M484 189l1 1h0l-1-1z"/><path id="path3770" d="M483 186h1l1-2h-2v-1h-2l2 3z"/><path id="path3772" d="M488 205l3 1 1 1h-3l-1-2z"/><path id="path3774" d="M478 175h1v2l-2 1-2-3h3z"/><path id="path3776" d="M468 167h2l2 1 1 5-5-3-2-3h2z"/><path id="path3778" d="M464 165s3 0 3-2-2-3-2-3l-4 3 3 2z"/><path id="path3780" d="M456 161l1 1c1-1 4-4 6-4h2v2l-6 3h-2l-1-1v-1z"/><path id="path3782" d="M455 156l-3-3c-1 0 2 2 2 5v4h1l1-1v-2l-1-1v-1-1z"/><path id="path3784" d="M447 153c-2-3-7-5-7-5l6 5 2 6h1l1-1-1-2-1-1v-1l-1-1z"/><path id="path3786" d="M440 150c-3-3-9-4-13-4-5 0-7 0-7 3 1 2 3 3 7 3h7l4 3-3-3-3-3h2c3 0 6 2 7 4l1 4h1v-1-2l-2-3-1-1z"/><path id="path3788" d="M427 187c2 0 6-3 7-9 1-5-2-15-3-16h2c1 1 3 9 3 14 0 6-1 7-4 10s-5 3-5 3v-2z"/><path id="path3790" d="M434 203h2c2 0 5-2 5-5l-2-4v-1h2v3l2 1c1-1 3-2 3-4s-3-4-3-5v-1h2l1 2 1 1 3-3-2-4v-1l1 1h2l3-3-1-3v-1l1 1 1 1v4l-2 2h-2l1 2-1 3-1 1-3 2v2l-1 3-3 2h-1v1l-2 3-3 2h-2l-1-2z"/><path id="path3792" d="M451 175s5 1 5-2c0-2-5-6-6-7v-1l3 2s3 1 4-1v-3h2v3l-2 7s1 3-2 3l-4-1z"/><path id="path3794" d="M456 214l-1-3-4-2 3 4 2 1z"/><path id="path3796" d="M463 214l-3-4-3-4 1 4 4 4h1z"/><path id="path3798" d="M470 214l-3-6c0-1-1-4-3-5v1l2 5 2 3 2 2z"/><path id="path3800" d="M475 211v-6l-3-5v5l3 6z"/><path id="path3802" d="M486 213l-3-6-2-5v4l2 6 3 1z"/><path id="path3804" d="M495 202l-5-3-7-1 2 1 3 2 5 2 2-1z"/><path id="path3806" d="M457 204s0 3 2 5l6 6 2 8 2 7 1 2-2-2v-3l-4-11-8-8-2-4h3z" fill="#202020"/><path id="path3808" d="M465 225l-1-6-6-6h-3l-5-5v1l6 6 3 7 1 4 2 2v-1l-2-4c-1-3-2-7-4-8v-1h2l5 5 2 6 3 5-3-5z" fill="#202020"/><path id="path3810" d="M459 198l4 3h1l3 9 4 4s0 7 2 11 2 10 2 10c-1 1-2-2-3-5l-2-8-4-6h1l3 6 2 6 1-1-1-5-2-7-3-4-3-7-1-2h-2l-2-4z" fill="#202020"/><path id="path3812" d="M467 197l3 2 2 1s0 5 2 9l5 5 1 9v25l-1-10c-1-2-2-3-3-10l-2-11c-1-2-3-2-3-2s2 0 3 2l2 11 4 10-1-13-2-10-4-6-2-8-1-1c-3-1-3-3-3-3z" fill="#202020"/><path id="path3814" d="M473 194l4 4 4 1s-1 5 2 10l3 5 1 18c0 4 1 19-1 19s0-11-1-13l-2-4-2-15-2-5 2 4 2 15 3 5-1-20-5-13v-5l-4-2-3-4z" fill="#202020"/><path id="path3816" d="M482 197c0-1 1 2 5 3l8 2s3 6 3 13c0 8-2 7-3 14l-2 21-1 2-1 4-1-3 1-8-1-8-1-19-3-4s3 1 3 3l2 20v-3l1-13c0-3-1-12-3-13l2 2 1 1 1 1-1-1h-1l2 10v22l2-15 2-13-3-12c-1 0-5 0-8-2l-4-4z" fill="#202020"/><path id="path3818" d="M435 204h2l5-4v-2h1l4-3v-4h1c1-1 3-2 3-4l-1-3h2s3-2 3-4l-3-4h3c1 0 2-1 2-3l-4-5c0-1 4 1 5-1v-3l-1-1 4-1 5-2-3 3 3 3 4 1h-3l8 7 1 1h0l4 7 1 1h0l4 8-9-12c-4-6-6-7-6-6l6 9 4 7s-5-10-12-16l-8-7c-1 0-2 5-1 6l10 9 9 14-10-13-10-9-1 3-2 1 6 6 3 1 2 1h-4l5 6h2l3 2-3-1h-1l3 5-10-10-6-5-1 2-2 1 6 7 5 6-5-6-5-4v2c0 1 6 7 5 8l-7-8-1 1-2 1 9 10-8-6 3 7-5-7-1 2-3 1 6 8-6-7-1 1 2 5-3-4-1 2-2 1 2 2 1 3-2-3-2-2-1 1-1-2z" fill="#202020"/><path id="path3820" d="M495 202l2-1-3-2c-1-2-6-16-11-23-9-11-17-16-17-16s10 5 17 16 9 20 11 22l4 3-1 1-3 1 1-1z" fill="#202020"/><path id="path3822" d="M432 199l3-3-2-1-1-3 1 2 3 1 4-5h-3l-1-3 2 2h2l3-5-2-1c-2 0-2-2-2-2l2 2c2 0 3-1 3-2v-6h-3l-2-2 2 1c2 1 3 0 3-1v-4c-1-1-2-1-2-3l-2 1c-2 0-3-2-3-2l3 1 2-2-1-3-1-2h-3l-2-1 2 1c2 0 2-1 2-2 0 0 0-2-3-4l-4-4 5 4 3 3h3v-3l-3-3 3 3v4c1 0 5 2 6 1v-3l-2-2 2 2 1 3-1 1 3 2 3 1 1-3-1-3 1 3v3l1 1h-2c-2-1-10-5-11-4l6 4 3 4-3-2-6-3c-1 1 1 1 1 1 1 1-1 2-1 3l6 5-2 2-3-3 2 3-1 1 3 5c0 1-2 1-1 2l2 3-3-2-2-2-1 3 2 3v3l-3-2-1 1-2 3 3 2c0 2-2 3-2 3l-2-3-3 3c-1 1 1 2 1 3h-2l-3 1v-1z" fill="#202020"/><path id="path3824" d="M466 160l1-1 1-3h-4l-6-3s-12-8-31-9c-6-1-9 1-9 3 0 0 2-3 8-3 2 0 21 2 31 10 1 0 4 3 7 3l3-1-1 2v2z" fill="#202020"/><path id="path3826" d="M433 162l-3-4-11-5c0-1 8 3 10 6l4 3z" fill="#202020"/><path id="path3828" d="M433 176l-2-2-3-1 3 1 2 2z"/><path id="path3830" d="M432 169l-3-2h-3 4c2 0 2 2 2 2z"/><path id="path3832" d="M431 163l-3-2-3-1 4 1 2 2z"/><path id="path3834" d="M428 159l-4-1-6-1h7c2 0 3 2 3 2z"/><path id="path3836" d="M421 155h-10l8-1 2 1z"/></g><g id="claws" fill="#f8c83c" stroke="#977c2e" stroke-width="0"><path id="path3839" d="M400 237s1 2 3 2 4 3 4 3l-2 3h-6l-2-3 3-5z"/><path id="path3841" d="M400 234l-3-5c-2 0 0 2 0 3l-1 1 1 3 3-2z"/><path id="path3843" d="M399 240l2 1 1-1"/><path id="path3845" d="M398 239l3-4-2-1-2 2 1 3z"/><path id="path3847" d="M395 241l2 1 3-1-2-3-3 1v2z"/><path id="path3849" d="M398 238l-3 2-1-2 2-1 1-1 1 1v1z"/><path id="path3851" d="M396 240s-3 4-5 4l1-6h2l2 2z"/><path id="path3853" d="M390 237l5 1-4 2-1-3z"/><path id="path3855" d="M379 243s1 2 3 2 3-2 3-2l-4-1-2 1z" fill="#202220" stroke="none"/><path id="path3857" d="M379 243l1 1 2 1 4-2-5-1-2 1 2-1 4 1v1l-3 1-2-1v-1h-1z" fill="#4b4139" stroke="none"/><path id="path3859" d="M381 243l3 1 4-2-4-3-3 4z" fill="#202220" stroke="none"/><path id="path3861" d="M381 243l3 1 4-2-4-3-4 4h1l3-4 4 3-4 2-3-1z" fill="#4b4139" stroke="none"/><path id="path3863" d="M381 243l2 1h3-4l-1-1z" fill="#4b4139" stroke="none"/><path id="path3865" d="M384 241s1 2 3 2l2-1-2-4-3 3z" fill="#202220" stroke="none"/><path id="path3867" d="M384 241v1l3 1 2-1h1v-1l-3-3-3 3 3-3 2 4-2 1-2-1-1-1z" fill="#4b4139" stroke="none"/><path id="path3869" d="M384 241s1 2 3 2l2-1v1h-3l-1-1-1-1z" fill="#4b4139" stroke="none"/><path id="path3871" d="M380 244l2 1 2-1-1 1h-3v-1z" fill="#4b4139" stroke="none"/><path id="path3873" d="M390 236c1 0 3 3 3 5l-2 3-4-3v-3l3-2z"/><path id="path3875" d="M379 237s-1-2-2-1v3l2-1v-1z"/><path id="path3877" d="M379 238l-2 1 1 3 2-1-1-3z"/><path id="path3879" d="M380 240l-2 2 1 2 2-2-1-2z"/><path id="path3881" d="M381 233h-1l-2 3 1 3 3-2-1-4z"/><path id="path3883" d="M381 236l-3 2 2 3 3-2-2-3z"/><path id="path3885" d="M384 241l-3 2-2-3 3-2 2 3z"/><path id="path3887" d="M387 230h-3c-2 0-3 2-4 3l1 4 5-3 1-4z"/><path id="path3889" d="M383 239l-2-3c0-1 2-3 4-3l1 4-3 2z"/><path id="path3891" d="M387 239l-2 2-3-1 1-2 2-1 2 2z"/><path id="path3893" d="M385 235s-2 1-1 2c1 2 2 2 3 2l2-1 2-2-1-3c-1 0-3 0-5 2z"/><path id="path3895" d="M389 229h-3l-2 4 1 3 2-2 1-1v-2l1-2z" fill="#202220" stroke="none"/><path id="path3897" d="M389 229l-3 1-2 2v1l1-1 2-3h2z" fill="#4b4139" stroke="none"/><path id="path3899" d="M432 261l2-1 2-2 1 3-2 2h-2l-2-1 1-1z"/><path id="path3901" d="M428 261h4v2l-2 2-2-1v-3z"/><path id="path3903" d="M444 260l-1-1-3-3v7h3l2-2-1-1z"/><path id="path3905" d="M428 261h-1c-2 0-3 1-3 2l1 4h3l8-5-2 1-2-1-2 2-1-1-1-2z"/><path id="path3907" d="M433 263l-1 1-2 1v2l3 1 2-2v-2l-2-1z"/><path id="path3909" d="M447 262l-1-1-2-1-1 2v2h1l1 1 2-1v-2z"/><path id="path3911" d="M437 261l-2 1-2 1 2 2h1l3-2v-2h-2z"/><path id="path3913" d="M449 264l-1-1-1-1-2 2 1 2h2l2-1-1-1z"/><path id="path3915" d="M444 266h1l1 1 2 3h3c1-1 0 0 0 0l3-3-1-1s1-2-1-3l-3 1-2 2-1-1-1-1h-1l-1-2h-2v-1l-3 1-1 2-2 1-2 2c-2 0-3-2-3-2l-2 1-1 2 1 3c1 0 2 2 4 1s1-3 1-3l1-1 4-2" stroke-linecap="round" stroke-linejoin="round"/><path id="path3917" d="M441 253v4l-1 5h-4v-4l5-5z"/><path id="path3919" d="M437 266l2 1 1-1v-1s0 2 2 2 2-2 2-2" stroke-linecap="round" stroke-linejoin="round"/><path id="path3921" d="M422 269s-2-2 0-3l2 1 1-3-1-1c0-1-5 0-5 3 0 2 3 3 3 3z" fill="#202220" stroke="none"/><path id="path3923" d="M428 276v-3l1-1v-2l-2-2s-3 2-2 4c0 3 3 4 3 4z" fill="#202220" stroke="none"/><path id="path3925" d="M452 273s5 2 5-2c0-3-2-4-3-4l-2 1-1 2c1 0 2-1 3 1s-2 2-2 2z" fill="#202220" stroke="none"/><path id="path3927" d="M428 276s-3-1-3-5c0-2 2-3 2-3s-2 1-2 3c0 4 3 5 3 5z" fill="#4b4139" stroke="none"/><path id="path3929" d="M422 269s-2 0-3-3c0-3 5-3 5-3s-5 0-4 3c0 3 2 3 2 3z" fill="#4b4139" stroke="none"/><path id="path3931" d="M452 273l2 1 3-2-1-4-2-1 2 1 1 4c-1 2-3 2-4 2l-1-1z" fill="#4b4139" stroke="none"/></g><g id="body" fill="#4d2a15"><path id="path3934" d="M397 176h-1l1-2h5l2-1 1 1 2 3-5 3h-1v-1l-1-2z" fill="#904720"/><path id="path3936" d="M442 246v-7l-20 6 8 7z" fill="#202020"/><path id="path3938" d="M406 233l-1-1-2-1h-2v1l2 2a616 616 0 0 0 4 3h1l-2-4z" fill="#d2a567"/><path id="path3940" d="M406 236h1l1 2 1 1 1 2v1l-2-1-7-1 1-2 1-1h1l1-1z" fill="#d2a567"/><path id="path3942" d="M410 242l1-1h1l-1-3 1-7-6-6-1 3 2 6 1 4z" fill="#d2a567"/><path id="path3944" d="M406 228v2c1 2 1 7 3 10l-2-3-2-10c1-5 1 1 1 1z" fill="#ab6d29"/><path id="path3946" d="M410 232l-1 2v3s-1-1 1-2l1 4v-6l-1-1z" fill="#ab6d29"/><path id="path3948" d="M410 244l-5-1-5-3h6l3 1h2l2-1v3l-3 1z" fill="#ab6d29"/><path id="path3950" d="M401 243l1 2h-4l6 1 1-1-4-2z" fill="#ab6d29"/><path id="path3952" d="M399 242l3 1 3-1v1h1v2l-4-2-2-1h-1z" fill="#d2a567"/><path id="path3954" d="M412 239l1 1 1-3v-3l-2-1z" fill="#ab6d29"/><path id="path3956" d="M406 234l-1-3-2-4 1-3 2 3-1 3 1 4z"/><path id="path3958" d="M395 244l2-1h3l4 2 1 1-7-1-3-1z" fill="#d2a567"/><path id="path3960" d="M412 232v5l1 3-1 1h-3 2l-1-3v-3l-1 1 1-6 2 2z" fill="#8f4620"/><path id="path3962" d="M400 243l-1-1c0-1 1 2 5 2l3-1h2l-1 2-3 2h-1v-3l-3-1h-1z" fill="#ab6d29"/><path id="path3964" d="M406 234l-5-8c-2-3-1-7-1-7l4 6v2l2 7z" fill="#8f4620"/><path id="path3966" d="M404 249v-2c3-3 9-5 9-5v4l-8 4-1-1z" fill="#ab6d29"/><path id="path3968" d="M404 247l2-2-3-1-3-1 3 2 1 1v1z" fill="#8f4620"/><path id="path3970" d="M415 247l-1-2-1-3-1 1-3 1h3l-4 2h3l-3 1-3 2h-1l2 1 3-1 6-2z" fill="#8f4620"/><path id="path3972" d="M415 247l-2-6-1-7 2 1 3 4-2 8z" fill="#ab6d29"/><path id="path3974" d="M416 238l-1 5v4l3 3 1-3v-4l-3-5z" fill="#8f4620"/><path id="path3976" d="M419 242s1 8-1 9l-3-4 3 3 1-8z" fill="#202020"/><path id="path3978" d="M415 247l-1-1-4 3h-6s1 2 6 0l4-1 1-1z" fill="#202020"/><path id="path3980" d="M407 237l1 2 2 3-1-3-3-4 1 2z" fill="#ab6d29"/><path id="path3982" d="M404 247v-2h-4l-5-1 4 2 4 1h1z" fill="#8f4620"/><path id="path3984" d="M404 247v-1h-5l-4-2 4 2 5 1z" fill="#202020"/><path id="path3986" d="M406 236l-4 1-2 3h2l1-3 3-1z" fill="#ab6d29"/><path id="path3988" d="M401 231l2 2 3 2 1 2-5-3-1-3z" fill="#8f4620"/><path id="path3990" d="M405 232l-2-1h-2l1 2h1l-2-2c1-1 4 1 4 1z" fill="#8f4620"/><path id="path3992" d="M415 227l22-11 11 14-19 5-10 1-5-3z" fill="#202020"/><path id="path3994" d="M445 233l28 24-3 2-7-2-13-13-5-5z"/><path id="path3996" d="M480 252l-15-12-20-15v8l23 21 7 3 4-1 2-2-1-2z"/><path id="path3998" d="M445 236s8 9 14 13c6 5 12 10 13 9l1-1-28-23v2z" fill="#803f1d"/><path id="path4000" d="M464 259l-2 2-4-2-17-17 1-3h3z"/><path id="path4002" d="M480 252s-2 5-6 4c-5-1-29-24-29-24v2s25 23 29 24c5 1 9-3 9-4l-3-2z" fill="#202020"/><path id="path4004" d="M442 239l12 14c4 4 8 7 10 6l-1-2-12-12-6-6h-3z" fill="#803f1d"/><path id="path4006" d="M444 239s20 21 22 21c3 1 8-2 8-2l-2-1s-1 2-5 1c-5-1-22-20-22-20l-1 1z" fill="#202020"/><path id="path4008" d="M452 259l-8-9-1-2-1-4 15 15-2 1-2-1z"/><path id="path4010" d="M465 259s-2 3-4 2c-3 0-4-2-4-2l-14-14v-2s15 16 18 17c2 0 3-2 3-2l1 1z" fill="#202020"/><path id="path4012" d="M457 259s-1 2-3 1l-2-1-9-10v-3s9 13 11 13c2 1 2-1 2-1l1 1z" fill="#202020"/><path id="path4014" d="M448 232l9 7 4 1-2 1 4 4h5l-3 1 4 3 6 1-4 1 6 5-7-5-1 2c-1 1 0-2-1-3l-4-4-1 3v-3l-5-4v2l-1-3-9-9z" fill="#b07229"/><path id="path4016" d="M434 255s0 3-2 3c-1 1-4-5-4-5v-6l4 4 2 4z"/><path id="path4018" d="M445 253v-1l-1-2v-4l-1-2v-1h-1l-2 2-1 2 1 4 1 3 2 1 2-2z"/><path id="path4020" d="M442 259v-5l-3-6-1-2-2-1-1 1v3l3 6 4 4z"/><path id="path4022" d="M440 245l1 4 2 5h-1s2 3 3 2v-3h-1l-2-6 1-3 1 6 1 1-1-5v-3-2-1l1 1 1-3v-8l-9 12 3 3z" fill="#202020"/><path id="path4024" d="M440 244s-1 3 1 7l1 3v5l-3-9-1-4h-1l3-2z" fill="#202020"/><path id="path4026" d="M439 261v-4l-4-7-3-3-2-3v6s2 5 4 6l5 5z"/><path id="path4028" d="M426 247l1 2v2l2 4 3 4 2-2s-1 2-2 1l-3-8-1-2-2-1z" fill="#202020"/><path id="path4030" d="M435 254l-2-4c0-2-1-3-2-3v-2l2 2 2 1 1 3-1 3z" fill="#202020"/><path id="path4032" d="M430 250l1 3 4 4-4-4-1-4v1z" fill="#5c3a1d"/><path id="path4034" d="M436 247l1-1 1-1-1-1-2-1 1 2v2z" fill="#202020"/><path id="path4036" d="M435 248l3 7 1 5-1-4-3-6v-2z" fill="#202020"/><path id="path4038" d="M439 244v-10l-4-8-1 1-4-3v7l7 13h2z"/><path id="path4040" d="M425 250l2 1-1-4-10-14 9 17z" fill="#8b441f"/><path id="path4042" d="M431 245l-1 4c-2 1-11-12-13-14l-6-4 7 1 12 12 1 1z" fill="#8b441f" stroke="#5c3a1d" stroke-width="0"/><path id="path4044" d="M425 250l-1-3-1-3-7-11-3-2a20 20 0 0 0 0 4l5 7 7 8z" fill="#202020"/><path id="path4046" d="M435 248v-5l-5-12h-2l-3-2-2-2 1 4-1 2 5 8 7 7z"/><path id="path4048" d="M441 241l2-2-1-5-4-13h-1l-2-2 1 8 3 10 1 3 1 1z"/><path id="path4050" d="M430 244l-5-6-2-4h-2l-3-2s-1 2 4 7c6 6 8 5 8 5z" fill="#202020"/><path id="path4052" d="M439 245v-11l-4-8 4 10-1 4-1-4-2-4 3 12c-2-1-8-13-8-14v1s5 16 9 14z" fill="#8b441f"/><path id="path4054" d="M442 214l3 6 1 5v5l-1 10-2-1-2-11-2-11v-1l1-1 1-1h1z"/><path id="path4056" d="M435 248v-3l-1 1-2-5-1-1-1 2-6-9-1 1s7 15 12 14z" fill="#8b441f"/><path id="path4058" d="M432 241v-3l-2-7h-2l-3-2a49 49 0 0 0 7 12z" fill="#202020"/><path id="path4060" d="M436 239l-3-9-3-6v5l3 3 3 7z" fill="#202020"/><path id="path4062" d="M442 231l-1-8-2-6v-1h1l2 3-1-4v-1h-1-1v2h-1v5l2 5 2 5z" fill="#202020"/><path id="path4064" d="M446 230s1-7-1-11c-1-5-3-6-3-6v1l3 7 1 9z" fill="#202020"/><path id="path4066" d="M439 234l-2-9-1-5-2-1 1 5v1l2 4 2 5z" fill="#202020"/><path id="path4068" d="M443 242l-1-9-4-12 4 14c-1 1-2-4-2-4-1 0 3 9 1 9-1 1-1-1-1-1v1s1 2 3 2z" fill="#904720"/><path id="path4070" d="M444 238l-1-10-2-10 3 10 1 12-2-1v-1h1z" fill="#904720"/><path id="path4072" d="M431 247c1 1 1 3-1 3-1 0-4-2-4-4l4 3 1-4v2z" fill="#312317"/><path id="path4074" d="M439 212h3l2-4-1-3 1 3c0 2 1 6-3 7-3 0-2-1-2-1v-2z" fill="#d2a567"/><path id="path4076" d="M436 205l3 7v4l-1-1-2-10z" fill="#8f4620"/><path id="path4078" d="M399 210l14 20 17-20-11-11z" fill="#1e2121"/><path id="path4080" d="M417 197l-1 3 2 6 2 3 4 2 1-2v-3l1-1 2 1 2-2 2-4v-2l-1-1-3-6-2 3h-1l-2-1-2 3-3-1z"/><path id="path4082" d="M424 211l1-2v-8l-2-6c-1 0 2 4 1 9l-1 7h1z" fill="#5c3818"/><path id="path4084" d="M425 203s2 3 3 2v-7l-2-4 1-1 1 5c1 2 2 7 0 8-1 1-3-2-3-2v-1z" fill="#5c3818"/><path id="path4086" d="M417 205l2-1h1l1 3 2 3 1 1-1 1h-1l-3-2-1-1-1-4z" fill="#8f4620"/><path id="path4088" d="M423 234l-5-2-9-9-1-4 3 1 5-2 1-2 6-3 3-2h7l2-4 3 6v8l-4-2s2 7 0 8l-4-3s1 7-1 7c-1 0-5-2-6-4 0 0 2 6 0 7z" fill="#d2a567"/><path id="path4090" d="M421 225l2 2v5c-1 1-3-2-4-4l-2-5 4 2z" fill="#8f4620"/><path id="path4092" d="M436 208l1 11-5-4-6-8-1-1 1-1 2 1 8 2z" fill="#8f4620"/><path id="path4094" d="M417 229l-2-2-4-5-3-3-1-1 1-2h1l8 7v6z" fill="#8f4620"/><path id="path4096" d="M428 229l-7-6-5-7v-2h1l11 15z" fill="#8f4620"/><path id="path4098" d="M430 224l-4-3-1-4 5 7z" fill="#8f4620"/><path id="path4100" d="M432 223l-5-6-3-4h-2v-1h1l1-1 2-2 5 11 1 3z" fill="#8f4620"/><path id="path4102" d="M418 232l-2 1c-1-1-9-5-13-11l-4-6 2-2 12 14 5 4z" fill="#ab6d29"/><path id="path4104" d="M418 232l-2 1-9-7-7-10v-2l2-1 8 13 8 6z" fill="#8f4620"/><path id="path4106" d="M426 226l-4-4-5-7 1-1v-2l1-1 2 1 3 4 1 1 2 5-4-2 3 6z"/><path id="path4108" d="M421 225l1 2c-1 1-1 2-2 0l-3-4-1 3-4-5-3-5v-2-4 1l1 1 5 6 1-1 3 5 2 3z"/><path id="path4110" d="M403 217l7 10 8 5-11-13-4-2z"/><path id="path4112" d="M431 221l-4-5-2-6v-5l5 6 2 4-3-1c-1 1 3 6 2 7z"/><path id="path4114" d="M436 217c-1 0-3-2-3-4l-1-4-2-4v-4h2l3 3 1 5v8z"/><path id="path4116" d="M406 227l-5-8-2-3h1s1 4 6 9c5 6 7 6 7 6v4l-7-8z"/><path id="path4118" d="M412 233l-8-8-6-9 1-1a61 61 0 0 0 13 18z" fill="#202020"/><path id="path4120" d="M418 232l-8-8-4-6 2 1 3 5 7 8z" fill="#202020"/><path id="path4122" d="M417 223l-4-6-3-5 5 5h1v3l1 3z" fill="#202020"/><path id="path4124" d="M418 209v4l-1 1 2 3 3 2-2-3c-1-1-2-3-1-4l3 1 3 4-2-4-5-4z" fill="#202020"/><path id="path4126" d="M429 216l-2-5-2-7v3l-2 5h-1 2l1-2 2 3 2 3z" fill="#202020"/><path id="path4128" d="M425 204s3 3 4 1v-5h2l1-2 4 7 2 8-4-8-3-4v4l2 4 1 5-2-3-2-3-2-1-3-1v-2z" fill="#202020"/><path id="path4130" d="M416 217a37 37 0 0 0 5 8l-3-4-2-4z" fill="#171717"/><path id="path4132" d="M433 217l-1 1 1 3 2 1-1-2v-3h-1z" fill="#8f4620"/><path id="path4134" d="M402 198l-2 1-2 4 1 7a523 523 0 0 0 8 10l2-5v-4l2 3 4 3 3-5-5-13-3-1h-8z" fill="#d2a567"/><path id="path4136" d="M413 209l2 5v3l3-5-1-9v-6l-1-1-3 5v8z" fill="#ab6d29"/><path id="path4138" d="M404 206l1 7 2 4 2-6-1-7-1-6-3 8z" fill="#ab6d29"/><path id="path4140" d="M397 196s-4 6-4 9l2 6 1 7h1v-22z" fill="#45392d"/><path id="path4142" d="M397 197s-4 5-3 8l1 6 2 7 2-1 2-3-1-3-1-2-1-2v-5l1-4v-1h-2z" fill="#ab6d29"/><path id="path4144" d="M416 206l-2-1-1-1v-1l3 3z" fill="#dbad6c"/><path id="path4146" d="M398 197s-3 6-3 10l3 9v-2-11l1-4v-2h-1z" fill="#d2a567"/><path id="path4148" d="M404 199v2l-2 3-1 3 1-2 1-1 1 3-2 3v3l1-3 1-1 1 3 1-3 1-3v-1-5l2-1-2-3-3 3z" fill="#8f4620"/><path id="path4150" d="M416 210h-2l-1-1 1-1 1 1 1 1z" fill="#dbad6c"/><path id="path4152" d="M400 211l-1 1-1 3v-5l-1-3v-2-3l-1 1-1 2 1-2 2-4 1-2h1l2 2-2 1-1 5 1 6z" fill="#8f4620"/><path id="path4154" d="M412 199v3l-2 3v3l1-2 1-1 1 2 1 3v-1h1l1 1-1-2-1-2-1-2h2l2 2-1-1v-4-3-2l-4 3z" fill="#8f4620"/><path id="path4156" d="M426 194a31 31 0 0 0 2 10l-2-5-2-5-1 2 1 6-1-4-1-2-1 2 2 4-1-2h-1v2l2 3-2-2-1-1 1 4 2 4-2-3-2-11 2-2 2-7 1 6 2 1z" fill="#1e2121"/><path id="path4158" d="M415 193a19 19 0 0 0 2 3l-3 3c-2 1-4 2-5 1v-1l3-2 2-3 1-1z" fill="#1e2121"/><path id="path4160" d="M400 197l2 3 5-4 1-1-1-1-5 4-2-1z" fill="#1e2121"/><path id="path4162" d="M401 194l-1 2v1h-3v-2h2l2-1z" fill="#1e2121"/><path id="path4164" d="M427 189l2 5 2 3-2-2-2-2v-1-3z" fill="#1e2121"/><path id="path4166" d="M397 195h2l1-2v4l2 1 3-1 2-3 1 4h3l3-3 1-2 1-1 2-7-1-1-2 1-2-1-1-1-1 2-1 1h-1l-2 1v-2l-1-1-4 3h-1l-2 3-1 2-2 3h1z" fill="#dbad6c"/><path id="path4168" d="M412 188l-1 5-2 5s3-2 5-6l1-7-3 3z" fill="#8f4620"/><path id="path4170" d="M416 185v3l-1 5 1 2 2 2 3-3 2-4v1l1 2 3 1v-1l-1-6-2-5-2-2h-3l-3 5z" fill="#8f4620"/><path id="path4172" d="M422 180l1 5v0l-1-4v-1z" fill="#ab6d29"/><path id="path4174" d="M427 189v4l-2-4-2-6-1-3h2l3 9z"/><path id="path4176" d="M418 196s4-2 4-8l-1-8s0 5-2 8l-2 5h1l1-2v2l-1 3z"/><path id="path4178" d="M415 185l-2 3-4 2 3-3v-3l-1 2h-2l1-1v-1l2-3 1 2 2 2z"/><path id="path4180" d="M426 178l1 5v6l-2-3-1-4-1-2h-1l1-1v-2l1 1h2z" fill="#1e2121"/><path id="path4182" d="M418 191l3-6v-5l-2-1-2-2v4l-2 4h2c2-1 2-3 2-3v2l-1 7z" fill="#1e2121"/><path id="path4184" d="M395 195l3-4a20785 20785 0 0 1 8-10l1 4c1 2 1 1 2 1l-1 4-1 4v-4l-1 1-2 2 2-3v-1h-1l-1 1 1-1 1-3v-1-1l-2 2-1 1-2 4-1 4h-1l1-3 2-5h-1l-3 4-1 4h-2z" fill="#8f4620"/><path id="path4186" d="M427 176s1 1-1 2h-3v-2h4z" fill="#874f20"/><path id="path4188" d="M402 180l-1 3-2 3 2 1 1-7z" fill="#b27129"/><path id="path4190" d="M418 177s-1 8-3 8-3-4-3-4-1 5-4 5l-2-5-2 4c-3 3-5 1-5 1s3-3 3-6l1-1 2-2c1 1 4-1 4-1l2-2h1c2-1 2-3 2-3l4 3v3z" fill="#dbad6c"/><path id="path4192" d="M409 169l3 5 1-1 1 1c-1 2-2 3-1 5v-2l1-2 2 8 1-6c0-2 0 0 0 0 1 0 3 4 5 3l1-4-1-5-8-5-1 2c0 2-4 1-4 1z" fill="#b27129"/><path id="path4194" d="M420 168l1 2v9l-3-2-1-5-1-4v-3h2l2 3z" fill="#8f4620"/><path id="path4196" d="M420 166l3 5 3 4 1 1s-1 2-4 0l-2-6c-1-3-4-4-4-4l1-1 2 1z"/><path id="path4198" d="M418 163l4 4 3 6 2 3h-1l-2-2-3-6-3-2 2 2 1 5-1-3-4-4 2 4 2 4-3-4-2-2-2-3h3l2-2z" fill="#1e2121"/><path id="path4200" d="M410 169h4l1 2-1 3-1-3-3-2z" fill="#8f4620"/><path id="path4202" d="M411 174v5c0 3-2 6-3 6v-5-1l-1 2 1-3v-1l2-3h1z" fill="#b27129"/><path id="path4204" d="M407 176l-2 1-1 1h1v1l-3 4 3-3 1-2 2-1 1 1v3l1-3 1-4h-1l-2-1-1 3z" fill="#8f4620"/><path id="path4206" d="M418 161s1 2-1 3l-2 1-2-1-5-2-3-1h-1v-1h4l4 1 1 1h4l1-1z" fill="#dbad6c"/><path id="path4208" d="M418 161l-1 2h-3l-4-2-5-1v-1l5 1 5 2 3-1z" fill="#ab6d29"/><path id="path4210" d="M404 159h2v1h-2v-1z"/><path id="path4212" d="M414 166s2 1 1 3l-3-2-6-2-3-1 1-1v-1h3l4 1 3 3z" fill="#dbad6c"/><path id="path4214" d="M410 168s3 4 2 6l-7-5-3 4-6-3 6-4v-1h3l4 2 1 1z" fill="#dbad6c"/><path id="path4216" d="M408 162l5 2 4 1-3 1-3-2-3-1v-1z" fill="#ab6d29"/><path id="path4218" d="M404 161l3 1h2l-1 1-3-1h-1v-1z"/><path id="path4220" d="M414 168l1 1h-5l-3-3-4-1h-1l1-1 4 1 4 1 2 1 1 1z" fill="#ab6d29"/><path id="path4222" d="M407 170l1 4-1 2-1 1-1-1v-2l-3-2 2-2v-1l3 1z" fill="#ab6d29"/><path id="path4224" d="M403 164h2l3 1 1-1-1 1 3 1 3 2-3-1-4-2h-5v-1h1z"/><path id="path4226" d="M412 173v1l-4-1-1-2-3-2c-1 0 0 0 0 0l5 2 3 2z" fill="#ab6d29"/><path id="path4228" d="M412 173s-1-3-6-4l1-1h-3l-3-1h-1l-1 2 3-1 2 2-2 3 2-2 2 1v-1l-1-2 4 2 3 2z"/><path id="path4230" d="M404 169s4 1 4 5-3 3-3 2c-1-2 0 0 1 0l1-3-1-3-2-1z" fill="#dbad6c"/><path id="path4232" d="M389 160l-1 3-3 5c-3 4-5 4-4 5l2 1 5-8 1-5v-1z" fill="#6c3f18"/><path id="path4234" d="M402 154l1 7c-1 4-6 8-6 8l-9 6h-3l-1-1h-1l-1-2 1-1 3-3 2-3 1-3v-2 1l1 2-1 3 3-2 2-1 2-2 1-5v-2l1 2 1 4 1-2 1-2 1-2z" fill="#dbad6c"/><path id="path4236" d="M403 176v2c0 2-1 2-2 2v-2l-2-1-2-1h1l2-1 3 1z" fill="#904720"/><path id="path4238" d="M401 176h2l1-2c-1-1-1 1-1 2l-2-2-3 1h3v1z" fill="#ab6d29"/><path id="path4240" d="M389 170h2l5-1 2-2c1-1 4-3 4-7v-6s4 5 0 11c-2 4-5 5-5 5l5-1v3l3 2h-5l-4 2-2-1-4 1-6-2 3-3c1-2 2-1 2-1z" fill="#904720"/><path id="path4242" d="M399 160l2-4 1-2-1 3-2 3z" fill="#ab6d29"/><path id="path4244" d="M398 156s2 5 0 8c-1 2-8 5-8 5l7-6 1-6v-1z" fill="#904720"/><path id="path4246" d="M391 170l4-1 3-2-2 1-1-1-1 2-3 1z" fill="#1e2121"/><path id="path4248" d="M397 163l1-6c0-4-1-3-1-3l1 4-2 5z" fill="#1e2121"/><path id="path4250" d="M399 163l3-1v-4l-1 3-2 2z" fill="#1e2121"/><path id="path4252" d="M398 176l2-2 1 2-1-1-2 1z" fill="#1e2121"/><path id="path4254" d="M394 172l4-1 4-2-3 4-4 1 4-3-5 1z" fill="#1e2121"/><path id="path4256" d="M389 168a3 4 68 0 1-4 5" fill="#fff"/><path id="path4258" d="M389 168a3 3 68 0 1-4 5" fill="#f16e16"/><path id="path4260" d="M387 170a1 1 0 1 1-1 1" fill="#000"/><path id="path4262" d="M387 171z" fill="#d5d3ca"/><path id="path4264" d="M390 165l2-4v-4l1 1 1 2-1 3 2-1 2-8v5c-1 4-2 4-5 6l-5 5c0 2-2 4-3 4l2-3 3-4 1-2z" fill="#ab6d29"/><path id="path4266" d="M389 167l1-4-1-3 1 3-1 4z" fill="#904720"/><path id="path4268" d="M393 164l1-4-2-3s2 0 2 3l-1 4z"/><path id="path4270" d="M383 174v-1l2-3 3-4c0-1 2-4 1-6l-1 5-5 5-1 3v1h1z" fill="#ab6d29"/><path id="path4272" d="M401 180h1l-1-2-2-2h-3l2 2h2l1 2z" fill="#6c4119"/><path id="path4274" d="M401 180s2 0 2-2v-2l1 1h1s-1 4-4 3z" fill="#6c4119"/></g><g id="beak" fill="#f9c83a"><path id="path4277" d="M387 180l1 1 1 1 5-1 2-2-2-2h-3l-4 3z" fill="#bf802d"/><path id="path4279" d="M399 178l-1-1-1-1h-6l-2 1-3-2-2-1h-3l-2 2h1l-1 1s-4 2-4 5c-1 4 6 9 8 7 0 0-3-3-3-5 1-2 3-4 6-4l4-1c1-1 3-2 5 0s-6 3-6 3v2s11-4 10-6z" stroke="#8f4620" stroke-width="0"/><path id="path4281" d="M380 187s-4-1-4-5 4-5 4-5l2-2h2l2 1s-7 4-7 8l1 3z" fill="#fcf3d8"/><path id="path4283" d="M399 178h-1l-4-2-4 1h-3c-1 0-4-3-5-2l-1 1h-1l2-2 8 2 4-1c2 0 5 1 5 3z" fill="#fdeaaf"/><path id="path4285" d="M387 181l3-1 3-1-2 1-3 1h-1z" fill="#513625"/><path id="path4287" d="M382 189l-4-1c-3-2-3-4-3-4s-1-3 2-5l2-2c1 0 0 0 0 0l-2 2-1 2-1 1v2l1 2 4 2 2 1z"/><path id="path4289" d="M380 175v-1 1-1 1-1 1-1 1h-1v1l1 1h1l1-1h-1-1a4 4 0 0 1 0-1h1v-1h-1v1z" fill="#8b5122"/><path id="path4291" d="M387 178l-5 2h6c2-1 6-2 7-1 0 2-6 3-6 3v1l5-2 2-1 1-1-2-2h-4l-1 1h-3z"/><path id="path4293" d="M380 186l2 2v1h-2c-1-1-4-1-5-6v1l1 2 1 2 3 1h3l-1-2-2-3v2z" fill="#8f4620"/></g></g><g id="snake2" fill="#816c2a"><path id="path4296" d="M397 229l-1 2v-2z" fill="#fcca3d"/><path id="path4298" d="M390 184l-1-2h-1l1 2z" fill="#fcca3d"/><path id="path4300" d="M396 233l-2-2h-3a14 14 0 0 0 5 2z"/><path id="path4302" d="M396 229h-2-1l-2 1a5 5 0 0 1 3-1 30 30 0 0 1 2 0z"/><path id="path4304" d="M396 225l-3 2-3 2h1v-1a24 24 0 0 1 5-2v-1z"/><path id="path4306" d="M394 222l-1 1-1 1-2 2-1 2 2-2a114 114 0 0 0 3-3v-1z"/><path id="path4308" d="M391 220v3l-2 3v1h-1l1 1 2-5a6 6 0 0 0 0-3z"/><path id="path4310" d="M388 220a12 12 0 0 0 0 1v2a145 145 0 0 1-1 4l1-3 1-3-1-1z"/><path id="path4312" d="M386 220v4l-1 3 1-1v-2-4z"/><path id="path4314" d="M384 220a16 16 0 0 0 0 4l-1 3h1a30 30 0 0 1 0-3v-2-2z"/><path id="path4316" d="M382 220v3l-1 3-1 1h1l1-4v-3z"/><path id="path4318" d="M380 220a10 10 0 0 0 0 1l-1 3-1 2h-1l-1 1h1l3-3v-3-1z"/><path id="path4320" d="M379 220l-2 3a9 9 0 0 1-2 2l3-2 1-3z"/><path id="path4322" d="M377 219l-1 1-1 1a10 10 0 0 1-2 1h1l2-1 1-1v-1z"/><path id="path4324" d="M376 218h-1a23 23 0 0 1-1 2h-1v1l1-1 2-2z"/><path id="path4326" d="M375 217l-1 1h-1v1h1l2-2h-1z"/><path id="path4328" d="M375 216l-1 1a14 14 0 0 1-1 0l2-1z"/><path id="path4330" d="M375 214h-1v1h-1v1l1-1 1-1z"/><path id="path4332" d="M375 211l-1 1-1 1v0l1-1h1v-1z"/><path id="path4334" d="M389 195h2v-1 1-1 1-1 1-1 1-1 1-1 1-1 1-1 1-1h-1 1-1 1-1 1-1-1v1z"/><path id="path4336" d="M389 193h1l1-1h1v-1l-1 1h-1l-1 1z"/><path id="path4338" d="M389 191h1l1-1 1-1h-1l-1 1-1 1z"/><path id="path4340" d="M388 189l2-1 2-1v-1l-2 2-2 1z"/><path id="path4342" d="M386 187l5-3-5 3z"/><path id="path4344" d="M385 185l2-1 2-2-2 1-3 2h1z"/><path id="path4346" d="M383 184a173 173 0 0 1 5-3h-1l-4 3z"/><path id="path4348" d="M386 180a402 402 0 0 0 4 4l2 5v1l-3 6-9 9-4 4-2 4 2 5a6 6 0 0 0 5 2h7c2 0 4 0 6 2s2 5 2 8a32 32 0 0 1-1 7l1 1 1-8c0-3-1-6-3-8-1-2-4-3-6-3l-7 1h-1l-4-2-1-5 2-5 9-9c4-2 6-6 7-9v-1l-3-6-3-3h-1z" fill="#78732e"/><path id="path4350" d="M383 184h-1 1z" fill="#a8ac71"/><path id="path4352" d="M385 185h-1z" fill="#a8ac71"/><path id="path4354" d="M387 187h-1v1z" fill="#78732e"/><path id="path4356" d="M388 189h-1l1 1z" fill="#78732e"/><path id="path4358" d="M389 191h-1z" fill="#78732e"/><path id="path4360" d="M389 193z" fill="#78732e"/><path id="path4362" d="M389 195v-1 1z" fill="#78732e"/><path id="path4364" d="M373 214v-1l-1 1h1z" fill="#78732e"/><path id="path4366" d="M373 215h-1v1h1v-1z" fill="#fff"/><path id="path4368" d="M373 218v-1h-1v1z" fill="#78732e"/><path id="path4370" d="M373 219v-1 1z" fill="#fff"/><path id="path4372" d="M373 221v-1 1z" fill="#fff"/><path id="path4374" d="M374 223l-1-1 1 1z" fill="#fff"/><path id="path4376" d="M375 225h-1 1z" fill="#a8ac71"/><path id="path4378" d="M377 227h-1c0-1 0 0 0 0h1z" fill="#a8ac71"/><path id="path4380" d="M390 228h-1 1z" fill="#a8ac71"/><path id="path4382" d="M391 229l-1-1v1h1z" fill="#fff"/><path id="path4384" d="M391 229v0z" fill="#a8ac71"/><path id="path4386" d="M391 231c0-1 0 0 0 0z" fill="#a8ac71"/><path id="path4388" d="M390 233h1-1z" fill="#fff"/><path id="path4390" d="M371 165s1-1 0 0v-1 1z" fill="#fff"/></g><g id="eagle2"><path id="path4393" d="M387 180c-1 0 0 0 0 0z" fill="#f9c83a"/><path id="path4395" d="M387 180h-1 1z" fill="#8f4620"/><path id="path4397" d="M395 237h1v1h-1v-1z" fill="#977c2e"/></g></g></g></g></svg>